<svg width="344" height="233" viewBox="0 0 344 233" fill="none" xmlns="http://www.w3.org/2000/svg">
<rect width="344" height="233" rx="40" fill="white"/>
<rect opacity="0.75" width="233" height="344" rx="40" transform="matrix(-4.37114e-08 -1 -1 4.37114e-08 344 233)" fill="url(#paint0_linear_3918_1109)"/>
<path d="M40.952 119.608H43.544V120.424C43.544 121.688 43.312 122.888 42.848 124.024C42.4 125.144 41.712 126.12 40.784 126.952C39.872 127.784 38.704 128.4 37.28 128.8L35.792 126.304C37.008 125.968 37.992 125.504 38.744 124.912C39.512 124.304 40.072 123.608 40.424 122.824C40.776 122.04 40.952 121.24 40.952 120.424V119.608ZM41.552 119.608H44.144V120.424C44.144 121.176 44.32 121.92 44.672 122.656C45.04 123.376 45.6 124.024 46.352 124.6C47.104 125.176 48.072 125.624 49.256 125.944L47.816 128.416C46.408 128.032 45.24 127.448 44.312 126.664C43.384 125.864 42.688 124.928 42.224 123.856C41.776 122.784 41.552 121.64 41.552 120.424V119.608ZM36.584 118.096H48.536V120.592H36.584V118.096ZM40.952 115.816H44.144V119.2H40.952V115.816ZM50.264 115.912H53.456V128.92H50.264V115.912ZM52.592 121.072H56.408V123.712H52.592V121.072ZM39.008 129.856H53.456V137.896H39.008V129.856ZM50.336 132.352H42.152V135.376H50.336V132.352ZM67.9981 120.424H74.0461V122.992H67.9981V120.424ZM67.9981 127.336H74.0461V129.904H67.9981V127.336ZM64.1341 117.424C65.2381 117.424 66.2221 117.752 67.0861 118.408C67.9661 119.048 68.6461 119.968 69.1261 121.168C69.6221 122.352 69.8701 123.752 69.8701 125.368C69.8701 127 69.6221 128.416 69.1261 129.616C68.6461 130.8 67.9661 131.72 67.0861 132.376C66.2221 133.016 65.2381 133.336 64.1341 133.336C63.0301 133.336 62.0461 133.016 61.1821 132.376C60.3181 131.72 59.6381 130.8 59.1421 129.616C58.6461 128.416 58.3981 127 58.3981 125.368C58.3981 123.752 58.6461 122.352 59.1421 121.168C59.6381 119.968 60.3181 119.048 61.1821 118.408C62.0461 117.752 63.0301 117.424 64.1341 117.424ZM64.1341 120.328C63.6061 120.328 63.1341 120.52 62.7181 120.904C62.3181 121.288 61.9981 121.856 61.7581 122.608C61.5341 123.344 61.4221 124.264 61.4221 125.368C61.4221 126.456 61.5341 127.384 61.7581 128.152C61.9981 128.904 62.3181 129.472 62.7181 129.856C63.1341 130.24 63.6061 130.432 64.1341 130.432C64.6941 130.432 65.1741 130.24 65.5741 129.856C65.9741 129.472 66.2861 128.904 66.5101 128.152C66.7341 127.384 66.8461 126.456 66.8461 125.368C66.8461 124.264 66.7341 123.344 66.5101 122.608C66.2861 121.856 65.9741 121.288 65.5741 120.904C65.1741 120.52 64.6941 120.328 64.1341 120.328ZM73.5181 115.864H76.7101V138.16H73.5181V115.864ZM91.7266 119.416H94.2706V121.912C94.2706 123.192 94.1346 124.448 93.8626 125.68C93.6066 126.912 93.2146 128.072 92.6866 129.16C92.1746 130.232 91.5266 131.184 90.7426 132.016C89.9586 132.832 89.0466 133.48 88.0066 133.96L86.1826 131.44C87.1106 131.008 87.9186 130.448 88.6066 129.76C89.3106 129.072 89.8866 128.304 90.3346 127.456C90.7986 126.592 91.1426 125.688 91.3666 124.744C91.6066 123.784 91.7266 122.84 91.7266 121.912V119.416ZM92.4226 119.416H94.9426V121.912C94.9426 122.792 95.0546 123.688 95.2786 124.6C95.5186 125.496 95.8626 126.352 96.3106 127.168C96.7586 127.968 97.3266 128.688 98.0146 129.328C98.7026 129.968 99.5186 130.48 100.463 130.864L98.7106 133.408C97.6546 132.944 96.7346 132.32 95.9506 131.536C95.1666 130.752 94.5106 129.848 93.9826 128.824C93.4546 127.8 93.0626 126.704 92.8066 125.536C92.5506 124.352 92.4226 123.144 92.4226 121.912V119.416ZM87.0706 118.024H99.5506V120.664H87.0706V118.024ZM101.615 115.912H104.807V138.136H101.615V115.912ZM108.429 126.688H128.565V129.208H108.429V126.688ZM116.853 123.808H120.045V127.792H116.853V123.808ZM116.829 116.296H119.565V116.968C119.565 117.784 119.437 118.568 119.181 119.32C118.925 120.056 118.549 120.736 118.053 121.36C117.557 121.984 116.949 122.552 116.229 123.064C115.509 123.56 114.677 123.984 113.733 124.336C112.805 124.688 111.765 124.944 110.613 125.104L109.437 122.584C110.445 122.472 111.341 122.288 112.125 122.032C112.925 121.76 113.613 121.44 114.189 121.072C114.781 120.704 115.269 120.296 115.653 119.848C116.053 119.4 116.349 118.936 116.541 118.456C116.733 117.96 116.829 117.464 116.829 116.968V116.296ZM117.357 116.296H120.069V116.968C120.069 117.48 120.165 117.984 120.357 118.48C120.549 118.976 120.837 119.448 121.221 119.896C121.605 120.328 122.085 120.728 122.661 121.096C123.253 121.464 123.949 121.776 124.749 122.032C125.549 122.288 126.453 122.472 127.461 122.584L126.285 125.104C125.149 124.944 124.109 124.688 123.165 124.336C122.237 123.984 121.405 123.568 120.669 123.088C119.949 122.592 119.341 122.032 118.845 121.408C118.349 120.768 117.973 120.08 117.717 119.344C117.477 118.608 117.357 117.816 117.357 116.968V116.296ZM110.661 130.768H126.117V138.136H122.925V133.288H110.661V130.768ZM135.691 117.064H138.331V119.032C138.331 120.52 138.099 121.92 137.635 123.232C137.187 124.544 136.499 125.688 135.571 126.664C134.643 127.64 133.451 128.376 131.995 128.872L130.315 126.304C131.595 125.904 132.627 125.328 133.411 124.576C134.195 123.824 134.771 122.968 135.139 122.008C135.507 121.048 135.691 120.056 135.691 119.032V117.064ZM136.339 117.064H138.931V118.888C138.931 119.864 139.099 120.808 139.435 121.72C139.771 122.616 140.307 123.416 141.043 124.12C141.779 124.808 142.731 125.344 143.899 125.728L142.243 128.224C140.883 127.744 139.763 127.048 138.883 126.136C138.019 125.224 137.379 124.152 136.963 122.92C136.547 121.672 136.339 120.328 136.339 118.888V117.064ZM145.915 115.912H149.131V128.92H145.915V115.912ZM141.595 129.496C143.947 129.496 145.803 129.88 147.163 130.648C148.523 131.4 149.203 132.448 149.203 133.792C149.203 135.168 148.523 136.232 147.163 136.984C145.803 137.752 143.947 138.136 141.595 138.136C139.243 138.136 137.387 137.752 136.027 136.984C134.667 136.232 133.987 135.168 133.987 133.792C133.987 132.448 134.667 131.4 136.027 130.648C137.387 129.88 139.243 129.496 141.595 129.496ZM141.595 131.968C140.635 131.968 139.827 132.032 139.171 132.16C138.515 132.288 138.011 132.496 137.659 132.784C137.323 133.056 137.155 133.392 137.155 133.792C137.155 134.208 137.323 134.56 137.659 134.848C138.011 135.12 138.515 135.328 139.171 135.472C139.827 135.6 140.635 135.664 141.595 135.664C142.555 135.664 143.363 135.6 144.019 135.472C144.675 135.328 145.171 135.12 145.507 134.848C145.843 134.56 146.011 134.208 146.011 133.792C146.011 133.392 145.843 133.056 145.507 132.784C145.171 132.496 144.675 132.288 144.019 132.16C143.363 132.032 142.555 131.968 141.595 131.968ZM141.859 119.944H146.395V122.536H141.859V119.944ZM173.123 115.888H176.315V128.752H173.123V115.888ZM175.451 121.072H179.267V123.712H175.451V121.072ZM166.787 117.352H170.219C170.219 119.336 169.819 121.12 169.019 122.704C168.219 124.272 167.051 125.608 165.515 126.712C163.995 127.816 162.147 128.672 159.971 129.28L158.675 126.736C160.451 126.24 161.939 125.608 163.139 124.84C164.355 124.056 165.267 123.168 165.875 122.176C166.483 121.168 166.787 120.088 166.787 118.936V117.352ZM159.707 117.352H168.707V119.896H159.707V117.352ZM169.115 129.04C170.619 129.04 171.931 129.232 173.051 129.616C174.171 129.984 175.035 130.512 175.643 131.2C176.267 131.872 176.579 132.672 176.579 133.6C176.579 134.528 176.267 135.328 175.643 136C175.035 136.688 174.171 137.216 173.051 137.584C171.931 137.952 170.619 138.136 169.115 138.136C167.627 138.136 166.323 137.952 165.203 137.584C164.083 137.216 163.211 136.688 162.587 136C161.963 135.328 161.651 134.528 161.651 133.6C161.651 132.672 161.963 131.872 162.587 131.2C163.211 130.512 164.083 129.984 165.203 129.616C166.323 129.232 167.627 129.04 169.115 129.04ZM169.115 131.512C168.235 131.512 167.467 131.592 166.811 131.752C166.171 131.912 165.675 132.144 165.323 132.448C164.987 132.752 164.819 133.136 164.819 133.6C164.819 134.048 164.987 134.424 165.323 134.728C165.675 135.032 166.171 135.264 166.811 135.424C167.467 135.584 168.235 135.664 169.115 135.664C170.027 135.664 170.803 135.584 171.443 135.424C172.083 135.264 172.571 135.032 172.907 134.728C173.259 134.424 173.435 134.048 173.435 133.6C173.435 133.136 173.259 132.752 172.907 132.448C172.571 132.144 172.083 131.912 171.443 131.752C170.803 131.592 170.027 131.512 169.115 131.512ZM186.058 129.064H189.25V132.64H186.058V129.064ZM195.394 115.912H198.586V138.136H195.394V115.912ZM197.482 124.936H201.394V127.552H197.482V124.936ZM181.066 134.44L180.682 131.848C181.962 131.848 183.362 131.84 184.882 131.824C186.418 131.808 187.986 131.752 189.586 131.656C191.202 131.56 192.762 131.416 194.266 131.224L194.506 133.528C192.954 133.816 191.378 134.032 189.778 134.176C188.178 134.304 186.634 134.384 185.146 134.416C183.674 134.432 182.314 134.44 181.066 134.44ZM181.09 118.336H194.17V120.832H181.09V118.336ZM187.642 121.72C188.714 121.72 189.658 121.896 190.474 122.248C191.29 122.6 191.93 123.088 192.394 123.712C192.858 124.336 193.09 125.064 193.09 125.896C193.09 126.712 192.858 127.44 192.394 128.08C191.93 128.704 191.29 129.192 190.474 129.544C189.658 129.896 188.714 130.072 187.642 130.072C186.586 130.072 185.65 129.896 184.834 129.544C184.018 129.192 183.378 128.704 182.914 128.08C182.45 127.44 182.218 126.712 182.218 125.896C182.218 125.064 182.45 124.336 182.914 123.712C183.378 123.088 184.018 122.6 184.834 122.248C185.65 121.896 186.586 121.72 187.642 121.72ZM187.642 124.12C186.922 124.12 186.338 124.28 185.89 124.6C185.458 124.904 185.242 125.336 185.242 125.896C185.242 126.472 185.458 126.912 185.89 127.216C186.338 127.52 186.922 127.672 187.642 127.672C188.378 127.672 188.962 127.52 189.394 127.216C189.842 126.912 190.066 126.472 190.066 125.896C190.066 125.336 189.842 124.904 189.394 124.6C188.962 124.28 188.378 124.12 187.642 124.12ZM186.058 116.008H189.25V120.208H186.058V116.008Z" fill="black"/>
<path opacity="0.5" d="M39.416 157.152H40.488V157.776C40.488 158.597 40.3173 159.36 39.976 160.064C39.6453 160.768 39.176 161.376 38.568 161.888C37.96 162.4 37.2507 162.789 36.44 163.056L35.8 162.016C36.5147 161.792 37.144 161.472 37.688 161.056C38.232 160.629 38.6533 160.133 38.952 159.568C39.2613 159.003 39.416 158.405 39.416 157.776V157.152ZM39.64 157.152H40.728V157.776C40.728 158.352 40.872 158.907 41.16 159.44C41.4587 159.963 41.8747 160.427 42.408 160.832C42.9413 161.227 43.56 161.531 44.264 161.744L43.64 162.784C42.84 162.528 42.136 162.155 41.528 161.664C40.9307 161.173 40.4667 160.597 40.136 159.936C39.8053 159.264 39.64 158.544 39.64 157.776V157.152ZM36.2 156.464H43.928V157.536H36.2V156.464ZM39.416 154.704H40.744V156.896H39.416V154.704ZM45.704 154.768H47.032V163.328H45.704V154.768ZM46.664 158.432H49.16V159.536H46.664V158.432ZM37.944 164.016H47.032V169.056H37.944V164.016ZM45.72 165.072H39.24V167.968H45.72V165.072ZM57.0308 158H61.4148V159.088H57.0308V158ZM57.0308 162.576H61.4148V163.664H57.0308V162.576ZM54.3748 155.888C55.0788 155.888 55.7028 156.096 56.2468 156.512C56.7908 156.917 57.2121 157.499 57.5108 158.256C57.8201 159.013 57.9748 159.904 57.9748 160.928C57.9748 161.952 57.8201 162.843 57.5108 163.6C57.2121 164.357 56.7908 164.944 56.2468 165.36C55.7028 165.776 55.0788 165.984 54.3748 165.984C53.6814 165.984 53.0574 165.776 52.5028 165.36C51.9588 164.944 51.5321 164.357 51.2228 163.6C50.9241 162.843 50.7747 161.952 50.7747 160.928C50.7747 159.904 50.9241 159.013 51.2228 158.256C51.5321 157.499 51.9588 156.917 52.5028 156.512C53.0574 156.096 53.6814 155.888 54.3748 155.888ZM54.3748 157.072C53.9161 157.072 53.5108 157.232 53.1588 157.552C52.8068 157.861 52.5294 158.309 52.3268 158.896C52.1348 159.472 52.0388 160.149 52.0388 160.928C52.0388 161.707 52.1348 162.389 52.3268 162.976C52.5294 163.552 52.8068 164 53.1588 164.32C53.5108 164.64 53.9161 164.8 54.3748 164.8C54.8441 164.8 55.2548 164.64 55.6068 164.32C55.9588 164 56.2308 163.552 56.4228 162.976C56.6254 162.389 56.7268 161.707 56.7268 160.928C56.7268 160.149 56.6254 159.472 56.4228 158.896C56.2308 158.309 55.9588 157.861 55.6068 157.552C55.2548 157.232 54.8441 157.072 54.3748 157.072ZM61.1108 154.768H62.4228V169.264H61.1108V154.768ZM70.0338 156.992H81.7938V158.08H70.0338V156.992ZM69.3938 166.4H82.5138V167.488H69.3938V166.4ZM75.9218 159.024C76.8924 159.024 77.7298 159.136 78.4338 159.36C79.1378 159.584 79.6818 159.909 80.0658 160.336C80.4604 160.763 80.6578 161.275 80.6578 161.872C80.6578 162.469 80.4604 162.981 80.0658 163.408C79.6818 163.835 79.1378 164.165 78.4338 164.4C77.7298 164.624 76.8924 164.736 75.9218 164.736C74.9511 164.736 74.1084 164.624 73.3938 164.4C72.6898 164.165 72.1458 163.835 71.7618 163.408C71.3778 162.981 71.1858 162.469 71.1858 161.872C71.1858 161.275 71.3778 160.763 71.7618 160.336C72.1458 159.909 72.6898 159.584 73.3938 159.36C74.1084 159.136 74.9511 159.024 75.9218 159.024ZM75.9218 160.096C75.2178 160.096 74.6098 160.171 74.0978 160.32C73.5964 160.459 73.2071 160.661 72.9298 160.928C72.6524 161.184 72.5138 161.499 72.5138 161.872C72.5138 162.245 72.6524 162.565 72.9298 162.832C73.2071 163.099 73.5964 163.307 74.0978 163.456C74.6098 163.595 75.2178 163.664 75.9218 163.664C76.6151 163.664 77.2124 163.595 77.7138 163.456C78.2258 163.307 78.6204 163.099 78.8978 162.832C79.1751 162.565 79.3138 162.245 79.3138 161.872C79.3138 161.499 79.1751 161.184 78.8978 160.928C78.6204 160.661 78.2258 160.459 77.7138 160.32C77.2124 160.171 76.6151 160.096 75.9218 160.096ZM75.2658 155.04H76.5778V157.6H75.2658V155.04ZM84.0965 162.24H97.2165V163.312H84.0965V162.24ZM85.7605 155.12H95.5365V158.56H87.1045V160.464H85.7925V157.568H94.2245V156.176H85.7605V155.12ZM85.7925 159.968H95.8405V161.008H85.7925V159.968ZM85.8725 164.624H95.5525V169.056H85.8725V164.624ZM94.2405 165.696H87.1685V167.968H94.2405V165.696ZM109.343 154.768H110.671V169.264H109.343V154.768ZM103.039 155.888C103.754 155.888 104.383 156.096 104.927 156.512C105.482 156.917 105.914 157.499 106.223 158.256C106.543 159.013 106.703 159.904 106.703 160.928C106.703 161.952 106.543 162.843 106.223 163.6C105.914 164.357 105.482 164.944 104.927 165.36C104.383 165.776 103.754 165.984 103.039 165.984C102.325 165.984 101.69 165.776 101.135 165.36C100.581 164.944 100.143 164.357 99.8233 163.6C99.5139 162.843 99.3593 161.952 99.3593 160.928C99.3593 159.904 99.5139 159.013 99.8233 158.256C100.143 157.499 100.581 156.917 101.135 156.512C101.69 156.096 102.325 155.888 103.039 155.888ZM103.039 157.072C102.559 157.072 102.138 157.232 101.775 157.552C101.423 157.861 101.146 158.309 100.943 158.896C100.741 159.472 100.639 160.149 100.639 160.928C100.639 161.707 100.741 162.389 100.943 162.976C101.146 163.552 101.423 164 101.775 164.32C102.138 164.64 102.559 164.8 103.039 164.8C103.509 164.8 103.919 164.64 104.271 164.32C104.634 164 104.917 163.552 105.119 162.976C105.322 162.389 105.423 161.707 105.423 160.928C105.423 160.149 105.322 159.472 105.119 158.896C104.917 158.309 104.634 157.861 104.271 157.552C103.919 157.232 103.509 157.072 103.039 157.072ZM117.706 160.592H130.81V161.664H117.706V160.592ZM118.922 155.44H122.746V156.528H118.922V155.44ZM122.314 155.44H123.61V155.984C123.61 156.443 123.584 157.109 123.53 157.984C123.477 158.859 123.285 159.904 122.954 161.12L121.642 160.88C121.866 160.091 122.026 159.387 122.122 158.768C122.218 158.139 122.272 157.595 122.282 157.136C122.304 156.667 122.314 156.283 122.314 155.984V155.44ZM124.586 155.44H128.49V156.528H124.586V155.44ZM127.914 155.44H129.21V156.064C129.21 156.565 129.184 157.243 129.13 158.096C129.088 158.949 128.912 159.973 128.602 161.168L127.322 160.944C127.525 160.165 127.664 159.472 127.738 158.864C127.824 158.245 127.872 157.707 127.882 157.248C127.904 156.779 127.914 156.384 127.914 156.064V155.44ZM123.418 163.68H129.93V164.688H123.418V163.68ZM126.714 165.296C127.205 165.296 127.642 165.376 128.026 165.536C128.41 165.696 128.709 165.925 128.922 166.224C129.136 166.512 129.242 166.859 129.242 167.264C129.242 167.872 129.002 168.352 128.522 168.704C128.053 169.056 127.45 169.232 126.714 169.232C125.978 169.232 125.37 169.056 124.89 168.704C124.41 168.352 124.17 167.872 124.17 167.264C124.17 166.656 124.41 166.176 124.89 165.824C125.37 165.472 125.978 165.296 126.714 165.296ZM126.714 166.24C126.298 166.24 125.962 166.331 125.706 166.512C125.45 166.693 125.322 166.944 125.322 167.264C125.322 167.584 125.45 167.835 125.706 168.016C125.962 168.197 126.298 168.288 126.714 168.288C127.13 168.288 127.466 168.197 127.722 168.016C127.978 167.835 128.106 167.584 128.106 167.264C128.106 166.944 127.978 166.693 127.722 166.512C127.466 166.331 127.13 166.24 126.714 166.24ZM126.058 162.432H127.354V164.416H126.058V162.432ZM119.242 167.776H119.946C120.245 167.776 120.586 167.765 120.97 167.744C121.354 167.723 121.77 167.68 122.218 167.616C122.666 167.541 123.12 167.445 123.578 167.328L123.754 168.416C122.997 168.608 122.293 168.731 121.642 168.784C121.002 168.837 120.437 168.864 119.946 168.864H119.242V167.776ZM119.242 163.536H120.538V168.176H119.242V163.536ZM142.969 154.768H144.297V169.248H142.969V154.768ZM138.729 156.336H140.041C140.041 157.381 139.913 158.389 139.657 159.36C139.412 160.331 139.022 161.253 138.489 162.128C137.956 162.992 137.262 163.797 136.409 164.544C135.556 165.291 134.521 165.957 133.305 166.544L132.601 165.472C133.998 164.8 135.15 164.016 136.057 163.12C136.964 162.224 137.636 161.227 138.073 160.128C138.51 159.019 138.729 157.824 138.729 156.544V156.336ZM133.273 156.336H139.289V157.408H133.273V156.336ZM150.968 156.848H152.056V159.184C152.056 159.952 151.949 160.709 151.736 161.456C151.522 162.192 151.224 162.891 150.84 163.552C150.466 164.203 150.029 164.779 149.528 165.28C149.026 165.781 148.488 166.176 147.912 166.464L147.144 165.408C147.666 165.152 148.157 164.805 148.616 164.368C149.085 163.931 149.496 163.429 149.848 162.864C150.2 162.299 150.472 161.701 150.664 161.072C150.866 160.443 150.968 159.813 150.968 159.184V156.848ZM151.24 156.848H152.312V159.184C152.312 159.792 152.408 160.4 152.6 161.008C152.802 161.605 153.08 162.171 153.432 162.704C153.794 163.227 154.205 163.691 154.664 164.096C155.133 164.501 155.634 164.821 156.168 165.056L155.432 166.112C154.845 165.835 154.296 165.461 153.784 164.992C153.272 164.523 152.824 163.984 152.44 163.376C152.066 162.757 151.773 162.096 151.56 161.392C151.346 160.677 151.24 159.941 151.24 159.184V156.848ZM147.608 156.256H155.688V157.36H147.608V156.256ZM157.656 154.768H158.984V169.248H157.656V154.768ZM170.019 155.584C170.733 155.584 171.373 155.728 171.939 156.016C172.504 156.304 172.947 156.699 173.267 157.2C173.587 157.701 173.747 158.277 173.747 158.928C173.747 159.579 173.587 160.16 173.267 160.672C172.947 161.173 172.504 161.568 171.939 161.856C171.373 162.133 170.733 162.272 170.019 162.272C169.304 162.272 168.664 162.133 168.099 161.856C167.533 161.568 167.085 161.173 166.755 160.672C166.435 160.16 166.275 159.579 166.275 158.928C166.275 158.277 166.435 157.701 166.755 157.2C167.085 156.699 167.533 156.304 168.099 156.016C168.664 155.728 169.304 155.584 170.019 155.584ZM170.019 156.688C169.56 156.688 169.144 156.784 168.771 156.976C168.397 157.168 168.104 157.435 167.891 157.776C167.677 158.107 167.571 158.491 167.571 158.928C167.571 159.365 167.677 159.755 167.891 160.096C168.104 160.437 168.397 160.704 168.771 160.896C169.144 161.088 169.56 161.184 170.019 161.184C170.488 161.184 170.904 161.088 171.267 160.896C171.64 160.704 171.933 160.437 172.147 160.096C172.36 159.755 172.467 159.365 172.467 158.928C172.467 158.491 172.36 158.107 172.147 157.776C171.933 157.435 171.64 157.168 171.267 156.976C170.904 156.784 170.488 156.688 170.019 156.688ZM175.923 154.768H177.251V161.984H175.923V154.768ZM176.675 158.016H179.379V159.12H176.675V158.016ZM167.523 167.776H168.227C168.515 167.776 168.851 167.765 169.235 167.744C169.619 167.712 170.024 167.664 170.451 167.6C170.877 167.525 171.299 167.419 171.715 167.28L171.923 168.336C171.464 168.485 171.011 168.597 170.563 168.672C170.125 168.747 169.709 168.795 169.315 168.816C168.92 168.848 168.557 168.864 168.227 168.864H167.523V167.776ZM167.523 163.552H168.819V168.16H167.523V163.552ZM171.411 163.632H178.659V164.64H171.411V163.632ZM175.043 165.136C175.832 165.136 176.472 165.323 176.963 165.696C177.464 166.059 177.715 166.555 177.715 167.184C177.715 167.813 177.464 168.309 176.963 168.672C176.472 169.035 175.832 169.216 175.043 169.216C174.253 169.216 173.608 169.035 173.107 168.672C172.605 168.309 172.355 167.813 172.355 167.184C172.355 166.555 172.605 166.059 173.107 165.696C173.608 165.323 174.253 165.136 175.043 165.136ZM175.043 166.096C174.605 166.096 174.243 166.197 173.955 166.4C173.677 166.592 173.539 166.853 173.539 167.184C173.539 167.515 173.677 167.781 173.955 167.984C174.243 168.176 174.605 168.272 175.043 168.272C175.48 168.272 175.837 168.176 176.115 167.984C176.392 167.781 176.531 167.515 176.531 167.184C176.531 166.853 176.392 166.592 176.115 166.4C175.837 166.197 175.48 166.096 175.043 166.096ZM174.403 162.352H175.699V164.416H174.403V162.352ZM182.402 161.536H192.338V162.608H182.402V161.536ZM180.738 166.32H193.858V167.424H180.738V166.32ZM186.61 162H187.922V166.752H186.61V162ZM182.402 155.92H192.194V157.024H183.73V162.016H182.402V155.92ZM195.44 162.736H208.56V163.824H195.44V162.736ZM197.104 155.136H206.88V158.656H198.448V160.592H197.136V157.664H205.568V156.192H197.104V155.136ZM197.136 160.16H207.184V161.216H197.136V160.16ZM201.344 160.704H202.656V163.264H201.344V160.704ZM196.912 164.928H206.96V169.104H205.632V166H196.912V164.928ZM45.592 178.768H46.92V193.264H45.592V178.768ZM46.616 184.48H49.288V185.584H46.616V184.48ZM36.424 188.528H37.56C38.4453 188.528 39.256 188.517 39.992 188.496C40.7387 188.464 41.4533 188.411 42.136 188.336C42.8293 188.261 43.5333 188.16 44.248 188.032L44.408 189.168C43.6613 189.296 42.936 189.397 42.232 189.472C41.5387 189.547 40.8133 189.595 40.056 189.616C39.2987 189.637 38.4667 189.648 37.56 189.648H36.424V188.528ZM36.424 180.176H43.128V181.264H37.736V189.04H36.424V180.176ZM61.3508 180.928H63.8468V182.032H61.3508V180.928ZM61.3508 184.016H63.8468V185.12H61.3508V184.016ZM54.5508 179.632C55.2868 179.632 55.9374 179.776 56.5028 180.064C57.0681 180.352 57.5108 180.752 57.8308 181.264C58.1614 181.776 58.3268 182.368 58.3268 183.04C58.3268 183.723 58.1614 184.32 57.8308 184.832C57.5108 185.333 57.0681 185.728 56.5028 186.016C55.9374 186.304 55.2868 186.448 54.5508 186.448C53.8361 186.448 53.1908 186.304 52.6148 186.016C52.0494 185.728 51.6014 185.333 51.2708 184.832C50.9401 184.32 50.7747 183.723 50.7747 183.04C50.7747 182.368 50.9401 181.776 51.2708 181.264C51.6014 180.752 52.0494 180.352 52.6148 180.064C53.1908 179.776 53.8361 179.632 54.5508 179.632ZM54.5508 180.752C54.0814 180.752 53.6601 180.853 53.2868 181.056C52.9134 181.248 52.6148 181.515 52.3908 181.856C52.1774 182.197 52.0707 182.592 52.0707 183.04C52.0707 183.499 52.1774 183.899 52.3908 184.24C52.6148 184.581 52.9134 184.848 53.2868 185.04C53.6601 185.232 54.0814 185.328 54.5508 185.328C55.0308 185.328 55.4574 185.232 55.8308 185.04C56.2041 184.848 56.4974 184.581 56.7108 184.24C56.9348 183.899 57.0468 183.499 57.0468 183.04C57.0468 182.592 56.9348 182.197 56.7108 181.856C56.4974 181.515 56.2041 181.248 55.8308 181.056C55.4574 180.853 55.0308 180.752 54.5508 180.752ZM60.4228 178.768H61.7508V187.344H60.4228V178.768ZM57.1428 187.792C58.1134 187.792 58.9561 187.904 59.6708 188.128C60.3854 188.341 60.9348 188.651 61.3188 189.056C61.7028 189.451 61.8948 189.936 61.8948 190.512C61.8948 191.077 61.7028 191.563 61.3188 191.968C60.9348 192.363 60.3854 192.667 59.6708 192.88C58.9561 193.104 58.1134 193.216 57.1428 193.216C56.1614 193.216 55.3134 193.104 54.5988 192.88C53.8841 192.667 53.3348 192.363 52.9508 191.968C52.5668 191.563 52.3748 191.077 52.3748 190.512C52.3748 189.936 52.5668 189.451 52.9508 189.056C53.3348 188.651 53.8841 188.341 54.5988 188.128C55.3134 187.904 56.1614 187.792 57.1428 187.792ZM57.1428 188.864C56.4281 188.864 55.8094 188.928 55.2868 189.056C54.7748 189.184 54.3801 189.371 54.1028 189.616C53.8254 189.861 53.6868 190.16 53.6868 190.512C53.6868 190.853 53.8254 191.147 54.1028 191.392C54.3801 191.637 54.7748 191.824 55.2868 191.952C55.8094 192.08 56.4281 192.144 57.1428 192.144C57.8574 192.144 58.4708 192.08 58.9828 191.952C59.4948 191.824 59.8894 191.637 60.1668 191.392C60.4441 191.147 60.5828 190.853 60.5828 190.512C60.5828 190.16 60.4441 189.861 60.1668 189.616C59.8894 189.371 59.4948 189.184 58.9828 189.056C58.4708 188.928 57.8574 188.864 57.1428 188.864ZM75.1415 178.784H76.4695V189.632H75.1415V178.784ZM76.0535 183.536H78.5975V184.64H76.0535V183.536ZM65.2695 180.544H73.8135V181.616H65.2695V180.544ZM69.5415 182.4C70.2242 182.4 70.8268 182.517 71.3495 182.752C71.8722 182.976 72.2775 183.291 72.5655 183.696C72.8535 184.091 72.9975 184.56 72.9975 185.104C72.9975 185.648 72.8535 186.123 72.5655 186.528C72.2775 186.923 71.8722 187.232 71.3495 187.456C70.8268 187.68 70.2242 187.792 69.5415 187.792C68.8588 187.792 68.2562 187.68 67.7335 187.456C67.2108 187.232 66.8002 186.923 66.5015 186.528C66.2135 186.123 66.0695 185.648 66.0695 185.104C66.0695 184.56 66.2135 184.091 66.5015 183.696C66.8002 183.291 67.2108 182.976 67.7335 182.752C68.2562 182.517 68.8588 182.4 69.5415 182.4ZM69.5415 183.44C68.8908 183.44 68.3628 183.595 67.9575 183.904C67.5522 184.203 67.3495 184.603 67.3495 185.104C67.3495 185.605 67.5522 186.005 67.9575 186.304C68.3628 186.603 68.8908 186.752 69.5415 186.752C70.2028 186.752 70.7308 186.603 71.1255 186.304C71.5308 186.005 71.7335 185.605 71.7335 185.104C71.7335 184.603 71.5308 184.203 71.1255 183.904C70.7308 183.595 70.2028 183.44 69.5415 183.44ZM68.8855 178.784H70.2135V181.088H68.8855V178.784ZM67.4615 191.84H77.1095V192.928H67.4615V191.84ZM67.4615 188.768H68.7735V192.288H67.4615V188.768ZM94.0005 178.768H95.3285V187.312H94.0005V178.768ZM94.7685 182.464H97.4405V183.584H94.7685V182.464ZM85.9525 187.968H95.3285V190.896H87.2965V192.416H85.9845V190.016H94.0165V188.896H85.9525V187.968ZM85.9845 192.144H95.8725V193.088H85.9845V192.144ZM87.9045 184.704H89.2165V186.544H87.9045V184.704ZM84.1925 186.976L84.0325 186C84.8858 186 85.8298 185.995 86.8645 185.984C87.8992 185.963 88.9552 185.925 90.0325 185.872C91.1098 185.808 92.1445 185.707 93.1365 185.568L93.2325 186.432C92.2085 186.603 91.1578 186.731 90.0805 186.816C89.0138 186.891 87.9738 186.939 86.9605 186.96C85.9578 186.971 85.0352 186.976 84.1925 186.976ZM84.4005 179.872H92.7045V180.816H84.4005V179.872ZM88.5445 181.28C89.5685 181.28 90.3845 181.445 90.9925 181.776C91.6112 182.107 91.9205 182.571 91.9205 183.168C91.9205 183.776 91.6112 184.251 90.9925 184.592C90.3845 184.923 89.5685 185.088 88.5445 185.088C87.5205 185.088 86.6992 184.923 86.0805 184.592C85.4725 184.251 85.1685 183.776 85.1685 183.168C85.1685 182.571 85.4725 182.107 86.0805 181.776C86.6992 181.445 87.5205 181.28 88.5445 181.28ZM88.5445 182.16C87.8938 182.16 87.3765 182.251 86.9925 182.432C86.6192 182.613 86.4325 182.859 86.4325 183.168C86.4325 183.488 86.6192 183.744 86.9925 183.936C87.3765 184.117 87.8938 184.208 88.5445 184.208C89.1952 184.208 89.7072 184.117 90.0805 183.936C90.4645 183.744 90.6565 183.488 90.6565 183.168C90.6565 182.859 90.4645 182.613 90.0805 182.432C89.7072 182.251 89.1952 182.16 88.5445 182.16ZM87.9045 178.64H89.2165V180.368H87.9045V178.64ZM98.8313 185.904H111.919V186.976H98.8313V185.904ZM104.719 183.584H106.015V186.352H104.719V183.584ZM100.479 183.168H110.383V184.24H100.479V183.168ZM100.479 179.44H110.287V180.496H101.791V183.808H100.479V179.44ZM105.359 188.016C106.906 188.016 108.117 188.245 108.991 188.704C109.866 189.152 110.303 189.792 110.303 190.624C110.303 191.456 109.866 192.096 108.991 192.544C108.117 193.003 106.906 193.232 105.359 193.232C103.813 193.232 102.597 193.003 101.711 192.544C100.837 192.096 100.399 191.456 100.399 190.624C100.399 189.792 100.837 189.152 101.711 188.704C102.597 188.245 103.813 188.016 105.359 188.016ZM105.343 189.056C104.597 189.056 103.951 189.12 103.407 189.248C102.874 189.365 102.463 189.541 102.175 189.776C101.887 190 101.743 190.283 101.743 190.624C101.743 190.955 101.887 191.237 102.175 191.472C102.463 191.707 102.874 191.883 103.407 192C103.951 192.128 104.597 192.192 105.343 192.192C106.111 192.192 106.762 192.128 107.295 192C107.839 191.883 108.255 191.707 108.543 191.472C108.831 191.237 108.975 190.955 108.975 190.624C108.975 190.283 108.831 190 108.543 189.776C108.255 189.541 107.839 189.365 107.295 189.248C106.762 189.12 106.111 189.056 105.343 189.056ZM114.206 180.352H120.734V181.44H114.206V180.352ZM116.462 184.496H117.774V189.392H116.462V184.496ZM120.19 180.352H121.502V181.136C121.502 181.723 121.481 182.491 121.438 183.44C121.406 184.389 121.289 185.536 121.086 186.88L119.774 186.768C119.987 185.456 120.11 184.336 120.142 183.408C120.174 182.48 120.19 181.723 120.19 181.136V180.352ZM123.31 178.768H124.638V193.248H123.31V178.768ZM124.27 184.816H126.942V185.952H124.27V184.816ZM113.566 190.08L113.406 188.976C114.27 188.965 115.214 188.955 116.238 188.944C117.273 188.923 118.318 188.88 119.374 188.816C120.441 188.752 121.459 188.661 122.43 188.544L122.51 189.536C121.507 189.696 120.478 189.813 119.422 189.888C118.377 189.963 117.353 190.016 116.35 190.048C115.347 190.069 114.419 190.08 113.566 190.08ZM142.329 178.768H143.657V186.128H142.329V178.768ZM143.065 181.888H145.785V182.992H143.065V181.888ZM134.457 186.816H143.657V190.368H135.801V192.544H134.505V189.376H142.345V187.872H134.457V186.816ZM134.505 191.984H144.169V193.056H134.505V191.984ZM136.425 179.296C137.15 179.296 137.79 179.429 138.345 179.696C138.91 179.963 139.353 180.341 139.673 180.832C139.993 181.312 140.153 181.872 140.153 182.512C140.153 183.141 139.993 183.701 139.673 184.192C139.353 184.672 138.91 185.051 138.345 185.328C137.79 185.595 137.15 185.728 136.425 185.728C135.71 185.728 135.07 185.595 134.505 185.328C133.94 185.051 133.492 184.672 133.161 184.192C132.841 183.701 132.681 183.136 132.681 182.496C132.681 181.867 132.841 181.312 133.161 180.832C133.492 180.341 133.94 179.963 134.505 179.696C135.07 179.429 135.71 179.296 136.425 179.296ZM136.425 180.384C135.956 180.384 135.534 180.475 135.161 180.656C134.798 180.837 134.51 181.088 134.297 181.408C134.084 181.717 133.977 182.085 133.977 182.512C133.977 182.928 134.084 183.296 134.297 183.616C134.51 183.936 134.798 184.192 135.161 184.384C135.534 184.565 135.956 184.656 136.425 184.656C136.894 184.656 137.31 184.565 137.673 184.384C138.046 184.192 138.34 183.936 138.553 183.616C138.766 183.296 138.873 182.928 138.873 182.512C138.873 182.085 138.766 181.717 138.553 181.408C138.34 181.088 138.046 180.837 137.673 180.656C137.31 180.475 136.894 180.384 136.425 180.384ZM157.672 178.784H159V187.36H157.672V178.784ZM147.896 185.568H149.064C149.938 185.568 150.749 185.557 151.496 185.536C152.253 185.515 152.989 185.472 153.704 185.408C154.418 185.333 155.16 185.237 155.928 185.12L156.088 186.208C155.288 186.336 154.52 186.437 153.784 186.512C153.058 186.576 152.312 186.619 151.544 186.64C150.786 186.661 149.96 186.672 149.064 186.672H147.896V185.568ZM147.864 179.648H154.424V183.6H149.192V186.24H147.896V182.56H153.128V180.72H147.864V179.648ZM149.656 188.144H159V193.056H149.656V188.144ZM157.704 189.216H150.952V191.968H157.704V189.216ZM168.391 179.024C169.991 179.024 171.239 179.243 172.135 179.68C173.031 180.107 173.479 180.72 173.479 181.52C173.479 182.331 173.031 182.955 172.135 183.392C171.239 183.819 169.991 184.032 168.391 184.032C166.801 184.032 165.553 183.819 164.647 183.392C163.751 182.955 163.303 182.331 163.303 181.52C163.303 180.72 163.751 180.107 164.647 179.68C165.553 179.243 166.801 179.024 168.391 179.024ZM168.391 180.016C167.612 180.016 166.945 180.075 166.391 180.192C165.836 180.309 165.409 180.48 165.111 180.704C164.823 180.928 164.679 181.2 164.679 181.52C164.679 181.84 164.823 182.117 165.111 182.352C165.409 182.576 165.836 182.747 166.391 182.864C166.945 182.971 167.612 183.024 168.391 183.024C169.18 183.024 169.852 182.971 170.407 182.864C170.961 182.747 171.383 182.576 171.671 182.352C171.969 182.117 172.119 181.84 172.119 181.52C172.119 181.2 171.969 180.928 171.671 180.704C171.383 180.48 170.961 180.309 170.407 180.192C169.852 180.075 169.18 180.016 168.391 180.016ZM161.863 185.008H174.935V186.08H161.863V185.008ZM163.447 187.312H173.255V190.576H164.775V192.32H163.479V189.6H171.959V188.336H163.447V187.312ZM163.479 192.048H173.687V193.088H163.479V192.048ZM191.746 178.768H193.01V193.248H191.746V178.768ZM186.466 183.968H189.25V185.056H186.466V183.968ZM188.85 179.104H190.098V192.496H188.85V179.104ZM183.698 181.024H184.722V182.864C184.722 183.653 184.647 184.427 184.498 185.184C184.348 185.931 184.13 186.635 183.842 187.296C183.554 187.947 183.202 188.539 182.786 189.072C182.37 189.595 181.9 190.021 181.378 190.352L180.562 189.36C181.234 188.955 181.799 188.411 182.258 187.728C182.727 187.045 183.084 186.283 183.33 185.44C183.575 184.597 183.698 183.739 183.698 182.864V181.024ZM183.97 181.024H184.978V182.864C184.978 183.696 185.095 184.512 185.33 185.312C185.575 186.112 185.922 186.837 186.37 187.488C186.828 188.128 187.388 188.64 188.05 189.024L187.25 190.016C186.546 189.579 185.948 188.997 185.458 188.272C184.978 187.536 184.61 186.704 184.354 185.776C184.098 184.837 183.97 183.867 183.97 182.864V181.024ZM180.962 180.464H187.57V181.552H180.962V180.464ZM201.936 187.904C202.971 187.904 203.862 188.011 204.608 188.224C205.366 188.437 205.947 188.741 206.352 189.136C206.768 189.531 206.976 190.011 206.976 190.576C206.976 191.12 206.768 191.595 206.352 192C205.947 192.395 205.366 192.693 204.608 192.896C203.862 193.109 202.971 193.216 201.936 193.216C200.912 193.216 200.022 193.109 199.264 192.896C198.507 192.693 197.926 192.395 197.52 192C197.115 191.595 196.912 191.12 196.912 190.576C196.912 190.011 197.115 189.531 197.52 189.136C197.926 188.741 198.507 188.437 199.264 188.224C200.022 188.011 200.912 187.904 201.936 187.904ZM201.936 188.928C201.179 188.928 200.523 188.997 199.968 189.136C199.414 189.264 198.982 189.451 198.672 189.696C198.374 189.941 198.224 190.235 198.224 190.576C198.224 190.896 198.374 191.179 198.672 191.424C198.982 191.669 199.414 191.856 199.968 191.984C200.523 192.112 201.179 192.176 201.936 192.176C202.704 192.176 203.366 192.112 203.92 191.984C204.475 191.856 204.902 191.669 205.2 191.424C205.51 191.179 205.664 190.896 205.664 190.576C205.664 190.235 205.51 189.941 205.2 189.696C204.902 189.451 204.475 189.264 203.92 189.136C203.366 188.997 202.704 188.928 201.936 188.928ZM197.008 179.504H206.32V180.576H197.008V179.504ZM195.472 185.504H208.512V186.592H195.472V185.504ZM200.832 182.72H202.144V185.824H200.832V182.72ZM205.552 179.504H206.864V180.72C206.864 181.307 206.848 181.909 206.816 182.528C206.784 183.136 206.667 183.813 206.464 184.56L205.168 184.416C205.36 183.669 205.472 183.008 205.504 182.432C205.536 181.856 205.552 181.285 205.552 180.72V179.504ZM219.983 178.768H221.295V193.248H219.983V178.768ZM220.991 184.72H223.663V185.84H220.991V184.72ZM210.095 181.088H218.623V182.176H210.095V181.088ZM214.431 183.36C215.114 183.36 215.716 183.504 216.239 183.792C216.772 184.08 217.188 184.475 217.487 184.976C217.796 185.467 217.951 186.037 217.951 186.688C217.951 187.339 217.796 187.915 217.487 188.416C217.188 188.917 216.772 189.312 216.239 189.6C215.716 189.877 215.114 190.016 214.431 190.016C213.748 190.016 213.14 189.877 212.607 189.6C212.084 189.312 211.668 188.917 211.359 188.416C211.05 187.915 210.895 187.339 210.895 186.688C210.895 186.037 211.05 185.467 211.359 184.976C211.668 184.475 212.084 184.08 212.607 183.792C213.14 183.504 213.748 183.36 214.431 183.36ZM214.431 184.464C213.994 184.464 213.604 184.56 213.263 184.752C212.922 184.944 212.65 185.205 212.447 185.536C212.255 185.867 212.159 186.251 212.159 186.688C212.159 187.125 212.255 187.515 212.447 187.856C212.65 188.187 212.922 188.448 213.263 188.64C213.604 188.821 213.994 188.912 214.431 188.912C214.858 188.912 215.242 188.821 215.583 188.64C215.924 188.448 216.191 188.187 216.383 187.856C216.586 187.515 216.687 187.125 216.687 186.688C216.687 186.251 216.586 185.867 216.383 185.536C216.191 185.205 215.924 184.944 215.583 184.752C215.242 184.56 214.858 184.464 214.431 184.464ZM213.743 178.944H215.071V181.568H213.743V178.944ZM230.59 183.952H233.374V185.056H230.59V183.952ZM227.902 180.128H228.942V182.896C228.942 183.643 228.862 184.379 228.702 185.104C228.552 185.829 228.328 186.512 228.03 187.152C227.742 187.792 227.39 188.368 226.974 188.88C226.558 189.392 226.088 189.808 225.566 190.128L224.734 189.136C225.224 188.837 225.667 188.464 226.062 188.016C226.456 187.568 226.787 187.067 227.054 186.512C227.331 185.947 227.539 185.36 227.678 184.752C227.827 184.133 227.902 183.515 227.902 182.896V180.128ZM228.158 180.128H229.182V182.848C229.182 183.424 229.246 184.005 229.374 184.592C229.512 185.168 229.704 185.723 229.95 186.256C230.206 186.779 230.52 187.259 230.894 187.696C231.267 188.133 231.688 188.496 232.158 188.784L231.406 189.808C230.883 189.488 230.419 189.083 230.014 188.592C229.608 188.091 229.267 187.531 228.99 186.912C228.712 186.283 228.504 185.621 228.366 184.928C228.227 184.235 228.158 183.541 228.158 182.848V180.128ZM235.918 178.768H237.198V193.248H235.918V178.768ZM232.974 179.072H234.222V192.512H232.974V179.072ZM242.829 186.224H244.141V190.544H242.829V186.224ZM248.173 186.224H249.501V190.544H248.173V186.224ZM239.613 190.288H252.733V191.392H239.613V190.288ZM246.141 179.68C247.165 179.68 248.071 179.835 248.861 180.144C249.65 180.453 250.269 180.885 250.717 181.44C251.175 181.995 251.405 182.651 251.405 183.408C251.405 184.155 251.175 184.811 250.717 185.376C250.269 185.931 249.65 186.363 248.861 186.672C248.071 186.971 247.165 187.12 246.141 187.12C245.127 187.12 244.221 186.971 243.421 186.672C242.631 186.363 242.013 185.931 241.565 185.376C241.117 184.811 240.893 184.155 240.893 183.408C240.893 182.651 241.117 181.995 241.565 181.44C242.013 180.885 242.631 180.453 243.421 180.144C244.221 179.835 245.127 179.68 246.141 179.68ZM246.141 180.736C245.373 180.736 244.69 180.848 244.093 181.072C243.495 181.296 243.026 181.611 242.685 182.016C242.343 182.411 242.173 182.875 242.173 183.408C242.173 183.941 242.343 184.411 242.685 184.816C243.026 185.211 243.495 185.52 244.093 185.744C244.69 185.968 245.373 186.08 246.141 186.08C246.919 186.08 247.607 185.968 248.205 185.744C248.802 185.52 249.271 185.211 249.613 184.816C249.954 184.411 250.125 183.941 250.125 183.408C250.125 182.875 249.954 182.411 249.613 182.016C249.271 181.611 248.802 181.296 248.205 181.072C247.607 180.848 246.919 180.736 246.141 180.736ZM254.683 191.136C254.683 190.741 254.779 190.464 254.971 190.304C255.163 190.144 255.393 190.064 255.659 190.064C255.926 190.064 256.161 190.144 256.363 190.304C256.566 190.464 256.667 190.741 256.667 191.136C256.667 191.52 256.566 191.797 256.363 191.968C256.161 192.139 255.926 192.224 255.659 192.224C255.393 192.224 255.163 192.139 254.971 191.968C254.779 191.797 254.683 191.52 254.683 191.136Z" fill="black"/>
<defs>
<linearGradient id="paint0_linear_3918_1109" x1="0" y1="172" x2="233" y2="172" gradientUnits="userSpaceOnUse">
<stop stop-color="#F0EEB5"/>
<stop offset="1" stop-color="#F0EEB5" stop-opacity="0"/>
</linearGradient>
</defs>
</svg>
