<svg width="397" height="99" viewBox="0 0 397 99" fill="none" xmlns="http://www.w3.org/2000/svg">
<path d="M386.186 78.994H388.188V80.49C388.188 81.37 388.049 82.2133 387.77 83.02C387.506 83.812 387.125 84.56 386.626 85.264C386.128 85.9533 385.534 86.5767 384.844 87.134C384.17 87.6913 383.422 88.168 382.6 88.564C381.779 88.9453 380.921 89.2313 380.026 89.422L379.014 87.508C379.806 87.3613 380.562 87.134 381.28 86.826C381.999 86.5033 382.659 86.1147 383.26 85.66C383.862 85.1907 384.375 84.6847 384.8 84.142C385.24 83.5847 385.578 82.998 385.812 82.382C386.062 81.7513 386.186 81.1207 386.186 80.49V78.994ZM386.626 78.994H388.628V80.49C388.628 81.1353 388.746 81.766 388.98 82.382C389.23 82.998 389.574 83.5847 390.014 84.142C390.454 84.6993 390.975 85.2053 391.576 85.66C392.178 86.1147 392.838 86.5033 393.556 86.826C394.275 87.134 395.03 87.3613 395.822 87.508L394.81 89.422C393.916 89.2313 393.058 88.9453 392.236 88.564C391.415 88.168 390.66 87.6913 389.97 87.134C389.296 86.5767 388.709 85.9533 388.21 85.264C387.712 84.56 387.323 83.812 387.044 83.02C386.766 82.2133 386.626 81.37 386.626 80.49V78.994ZM378.398 93.316H396.614V95.23H378.398V93.316Z" fill="black"/>
<path d="M372.39 77.696H374.7V97.848H372.39V77.696ZM359.234 79.346H361.522V84.472H366.604V79.346H368.892V93.074H359.234V79.346ZM361.522 86.276V91.204H366.604V86.276H361.522Z" fill="black"/>
<path d="M347.997 84.296H353.475V86.166H347.997V84.296ZM342.871 79.346H344.741V82.646C344.741 83.834 344.616 84.9927 344.367 86.122C344.118 87.2367 343.751 88.2853 343.267 89.268C342.798 90.236 342.218 91.1013 341.529 91.864C340.854 92.612 340.084 93.206 339.219 93.646L337.789 91.82C338.581 91.4387 339.285 90.9253 339.901 90.28C340.532 89.6347 341.067 88.9013 341.507 88.08C341.962 87.244 342.299 86.3713 342.519 85.462C342.754 84.538 342.871 83.5993 342.871 82.646V79.346ZM343.333 79.346H345.181V82.646C345.181 83.57 345.291 84.4867 345.511 85.396C345.746 86.2907 346.083 87.134 346.523 87.926C346.963 88.7033 347.491 89.4 348.107 90.016C348.723 90.632 349.42 91.116 350.197 91.468L348.811 93.316C347.946 92.876 347.176 92.2967 346.501 91.578C345.826 90.8447 345.254 90.0087 344.785 89.07C344.316 88.1313 343.956 87.1193 343.707 86.034C343.458 84.934 343.333 83.8047 343.333 82.646V79.346ZM352.309 77.696H354.619V97.848H352.309V77.696Z" fill="black"/>
<path d="M321.006 80.49H327.056V82.338H321.006V80.49ZM321.006 85.044H327.056V86.914H321.006V85.044ZM317.464 78.84C318.461 78.84 319.356 79.0527 320.148 79.478C320.94 79.8887 321.563 80.4607 322.018 81.194C322.473 81.9127 322.7 82.7487 322.7 83.702C322.7 84.6407 322.473 85.4767 322.018 86.21C321.563 86.9287 320.94 87.4933 320.148 87.904C319.356 88.3147 318.461 88.52 317.464 88.52C316.481 88.52 315.594 88.3147 314.802 87.904C314.01 87.4933 313.387 86.9287 312.932 86.21C312.477 85.4767 312.25 84.6407 312.25 83.702C312.25 82.7487 312.477 81.9127 312.932 81.194C313.387 80.4607 314.01 79.8887 314.802 79.478C315.594 79.0527 316.481 78.84 317.464 78.84ZM317.464 80.798C316.892 80.798 316.379 80.9227 315.924 81.172C315.469 81.4067 315.103 81.7367 314.824 82.162C314.56 82.5873 314.428 83.1007 314.428 83.702C314.428 84.274 314.56 84.78 314.824 85.22C315.103 85.6453 315.469 85.9827 315.924 86.232C316.379 86.4667 316.892 86.584 317.464 86.584C318.051 86.584 318.571 86.4667 319.026 86.232C319.495 85.9827 319.855 85.6453 320.104 85.22C320.368 84.78 320.5 84.274 320.5 83.702C320.5 83.1007 320.368 82.5873 320.104 82.162C319.855 81.7367 319.495 81.4067 319.026 81.172C318.571 80.9227 318.051 80.798 317.464 80.798ZM326.308 77.718H328.618V89.554H326.308V77.718ZM321.93 89.994C323.323 89.994 324.526 90.148 325.538 90.456C326.55 90.764 327.327 91.2113 327.87 91.798C328.427 92.37 328.706 93.0667 328.706 93.888C328.706 94.7093 328.427 95.4133 327.87 96C327.327 96.5867 326.55 97.0267 325.538 97.32C324.526 97.628 323.323 97.782 321.93 97.782C320.537 97.782 319.334 97.628 318.322 97.32C317.31 97.0267 316.525 96.5867 315.968 96C315.411 95.4133 315.132 94.7093 315.132 93.888C315.132 93.0667 315.411 92.37 315.968 91.798C316.525 91.2113 317.31 90.764 318.322 90.456C319.334 90.148 320.537 89.994 321.93 89.994ZM321.93 91.798C320.977 91.798 320.163 91.8787 319.488 92.04C318.813 92.2013 318.3 92.436 317.948 92.744C317.596 93.052 317.42 93.4333 317.42 93.888C317.42 94.3427 317.596 94.7313 317.948 95.054C318.3 95.362 318.813 95.5967 319.488 95.758C320.163 95.9193 320.977 96 321.93 96C322.883 96 323.69 95.9193 324.35 95.758C325.025 95.5967 325.538 95.362 325.89 95.054C326.257 94.7313 326.44 94.3427 326.44 93.888C326.44 93.4333 326.257 93.052 325.89 92.744C325.538 92.436 325.025 92.2013 324.35 92.04C323.69 91.8787 322.883 91.798 321.93 91.798Z" fill="black"/>
<path d="M291.727 87.728H309.943V89.576H291.727V87.728ZM299.801 88.916H302.155V93.36H299.801V88.916ZM293.949 95.538H307.919V97.408H293.949V95.538ZM293.949 91.468H296.281V96.022H293.949V91.468ZM300.813 78.136C302.235 78.136 303.482 78.3047 304.553 78.642C305.623 78.9793 306.452 79.456 307.039 80.072C307.64 80.688 307.941 81.414 307.941 82.25C307.941 83.086 307.64 83.812 307.039 84.428C306.452 85.044 305.623 85.5207 304.553 85.858C303.482 86.1807 302.235 86.342 300.813 86.342C299.39 86.342 298.136 86.1807 297.051 85.858C295.98 85.5207 295.151 85.044 294.565 84.428C293.978 83.812 293.685 83.086 293.685 82.25C293.685 81.414 293.978 80.688 294.565 80.072C295.151 79.456 295.98 78.9793 297.051 78.642C298.136 78.3047 299.39 78.136 300.813 78.136ZM300.813 80.006C299.874 80.006 299.053 80.094 298.349 80.27C297.645 80.446 297.102 80.7027 296.721 81.04C296.339 81.3773 296.149 81.7807 296.149 82.25C296.149 82.7193 296.339 83.1227 296.721 83.46C297.102 83.7973 297.645 84.054 298.349 84.23C299.053 84.406 299.874 84.494 300.813 84.494C301.766 84.494 302.587 84.406 303.277 84.23C303.966 84.054 304.501 83.7973 304.883 83.46C305.279 83.1227 305.477 82.7193 305.477 82.25C305.477 81.7807 305.279 81.3773 304.883 81.04C304.501 80.7027 303.966 80.446 303.277 80.27C302.587 80.094 301.766 80.006 300.813 80.006Z" fill="black"/>
<path d="M280.601 77.718H282.801V89.642H280.601V77.718ZM277.719 82.646H281.239V84.516H277.719V82.646ZM276.223 78.092H278.379V89.444H276.223V78.092ZM269.403 90.566H282.801V97.562H269.403V90.566ZM280.557 92.37H271.669V95.736H280.557V92.37ZM266.631 87.046H267.973C268.927 87.046 269.799 87.0313 270.591 87.002C271.383 86.9727 272.146 86.9213 272.879 86.848C273.627 86.7747 274.39 86.6573 275.167 86.496L275.365 88.344C274.573 88.4907 273.796 88.608 273.033 88.696C272.271 88.7693 271.479 88.8207 270.657 88.85C269.851 88.8647 268.956 88.872 267.973 88.872H266.631V87.046ZM266.609 78.994H274.199V84.692H268.853V88.366H266.631V82.954H271.955V80.798H266.609V78.994Z" fill="black"/>
<path d="M247.475 79.72H260.301V81.568H247.475V79.72ZM245.539 93.118H263.711V95.01H245.539V93.118ZM259.091 79.72H261.379V81.898C261.379 82.778 261.364 83.702 261.335 84.67C261.32 85.6233 261.262 86.672 261.159 87.816C261.056 88.9453 260.88 90.2213 260.631 91.644L258.321 91.424C258.585 90.0893 258.768 88.8647 258.871 87.75C258.974 86.6353 259.032 85.594 259.047 84.626C259.076 83.658 259.091 82.7487 259.091 81.898V79.72Z" fill="black"/>
<path d="M225.297 93.558H243.513V95.45H225.297V93.558ZM233.217 89.466H235.527V94.328H233.217V89.466ZM227.453 79.104H241.357V85.484H229.763V89.202H227.497V83.658H239.069V80.974H227.453V79.104ZM227.497 88.278H241.819V90.126H227.497V88.278Z" fill="black"/>
<path d="M205.062 93.448H223.279V95.362H205.062V93.448ZM206.559 79.588H221.673V81.458H206.559V79.588ZM206.646 88.014H221.629V89.862H206.646V88.014ZM209.529 81.326H211.817V88.19H209.529V81.326ZM216.415 81.326H218.702V88.19H216.415V81.326Z" fill="black"/>
<path d="M192.503 77.696H194.791V89.554H192.503V77.696ZM194.175 82.668H197.629V84.582H194.175V82.668ZM186.849 79.104H189.335C189.335 80.864 188.961 82.448 188.213 83.856C187.465 85.2493 186.394 86.452 185.001 87.464C183.622 88.4613 181.95 89.2387 179.985 89.796L179.039 87.948C180.711 87.4787 182.126 86.8627 183.285 86.1C184.444 85.3227 185.324 84.4353 185.925 83.438C186.541 82.4407 186.849 81.3627 186.849 80.204V79.104ZM179.963 79.104H188.213V80.974H179.963V79.104ZM188.411 89.818C189.746 89.818 190.904 89.9793 191.887 90.302C192.884 90.6247 193.654 91.0867 194.197 91.688C194.754 92.2747 195.033 92.9787 195.033 93.8C195.033 94.6213 194.754 95.3327 194.197 95.934C193.654 96.5207 192.884 96.9753 191.887 97.298C190.904 97.6353 189.746 97.804 188.411 97.804C187.076 97.804 185.903 97.6353 184.891 97.298C183.894 96.9753 183.124 96.5207 182.581 95.934C182.038 95.3327 181.767 94.6213 181.767 93.8C181.767 92.9787 182.038 92.2747 182.581 91.688C183.124 91.0867 183.894 90.6247 184.891 90.302C185.903 89.9793 187.076 89.818 188.411 89.818ZM188.411 91.622C187.516 91.622 186.739 91.71 186.079 91.886C185.434 92.0473 184.928 92.2967 184.561 92.634C184.209 92.9567 184.033 93.3453 184.033 93.8C184.033 94.2547 184.209 94.6507 184.561 94.988C184.928 95.3107 185.434 95.56 186.079 95.736C186.739 95.8973 187.516 95.978 188.411 95.978C189.306 95.978 190.076 95.8973 190.721 95.736C191.381 95.56 191.887 95.3107 192.239 94.988C192.591 94.6507 192.767 94.2547 192.767 93.8C192.767 93.3453 192.591 92.9567 192.239 92.634C191.887 92.2967 191.381 92.0473 190.721 91.886C190.076 91.71 189.306 91.622 188.411 91.622Z" fill="black"/>
<path d="M173.213 77.718H175.523V92.502H173.213V77.718ZM169.275 83.746H173.609V85.638H169.275V83.746ZM166.965 79.236H169.385C169.385 81.0107 169.011 82.624 168.263 84.076C167.515 85.5133 166.444 86.76 165.051 87.816C163.672 88.872 162.022 89.7153 160.101 90.346L159.133 88.498C160.731 87.9847 162.117 87.3173 163.291 86.496C164.464 85.6747 165.366 84.736 165.997 83.68C166.642 82.624 166.965 81.4727 166.965 80.226V79.236ZM160.167 79.236H168.439V81.106H160.167V79.236ZM162.609 95.538H176.029V97.408H162.609V95.538ZM162.609 91.006H164.941V96.572H162.609V91.006Z" fill="black"/>
<path d="M152.887 77.718H155.197V92.414H152.887V77.718ZM142.085 95.538H155.769V97.408H142.085V95.538ZM142.085 91.05H144.373V96.462H142.085V91.05ZM143.625 78.818H145.539V80.82C145.539 82.14 145.319 83.3867 144.879 84.56C144.439 85.7187 143.801 86.738 142.965 87.618C142.129 88.498 141.109 89.1653 139.907 89.62L138.719 87.794C139.775 87.398 140.669 86.8407 141.403 86.122C142.136 85.3887 142.686 84.5673 143.053 83.658C143.434 82.734 143.625 81.788 143.625 80.82V78.818ZM144.087 78.818H145.957V80.82C145.957 81.5387 146.059 82.2353 146.265 82.91C146.485 83.57 146.8 84.1933 147.211 84.78C147.636 85.3667 148.149 85.8873 148.751 86.342C149.352 86.7967 150.041 87.156 150.819 87.42L149.631 89.268C148.457 88.828 147.453 88.1973 146.617 87.376C145.781 86.54 145.15 85.5647 144.725 84.45C144.299 83.3207 144.087 82.1107 144.087 80.82V78.818Z" fill="black"/>
<path d="M129.193 82.756H133.417V84.648H129.193V82.756ZM132.735 77.718H135.045V89.686H132.735V77.718ZM128.357 90.214C129.765 90.214 130.967 90.368 131.965 90.676C132.977 90.9693 133.754 91.402 134.297 91.974C134.854 92.5313 135.133 93.2133 135.133 94.02C135.133 95.2227 134.524 96.154 133.307 96.814C132.104 97.474 130.454 97.804 128.357 97.804C126.259 97.804 124.602 97.474 123.385 96.814C122.167 96.154 121.559 95.2227 121.559 94.02C121.559 93.2133 121.83 92.5313 122.373 91.974C122.93 91.402 123.715 90.9693 124.727 90.676C125.753 90.368 126.963 90.214 128.357 90.214ZM128.357 91.974C127.403 91.974 126.589 92.0547 125.915 92.216C125.255 92.3773 124.749 92.6047 124.397 92.898C124.045 93.1913 123.869 93.5653 123.869 94.02C123.869 94.4453 124.045 94.812 124.397 95.12C124.749 95.428 125.255 95.6627 125.915 95.824C126.589 95.9707 127.403 96.044 128.357 96.044C129.31 96.044 130.117 95.9707 130.777 95.824C131.437 95.6627 131.943 95.428 132.295 95.12C132.661 94.812 132.845 94.4453 132.845 94.02C132.845 93.5653 132.661 93.1913 132.295 92.898C131.943 92.6047 131.437 92.3773 130.777 92.216C130.117 92.0547 129.31 91.974 128.357 91.974ZM123.297 79.742H125.189V81.194C125.189 82.4553 124.961 83.6433 124.507 84.758C124.067 85.858 123.429 86.8333 122.593 87.684C121.757 88.52 120.745 89.1507 119.557 89.576L118.391 87.75C119.168 87.4713 119.857 87.1047 120.459 86.65C121.075 86.1953 121.595 85.6747 122.021 85.088C122.446 84.5013 122.761 83.878 122.967 83.218C123.187 82.558 123.297 81.8833 123.297 81.194V79.742ZM123.759 79.742H125.629V81.194C125.629 82.0153 125.812 82.822 126.179 83.614C126.545 84.406 127.081 85.1173 127.785 85.748C128.489 86.364 129.347 86.8553 130.359 87.222L129.215 89.026C128.056 88.6153 127.066 88.0213 126.245 87.244C125.438 86.452 124.822 85.5353 124.397 84.494C123.971 83.438 123.759 82.338 123.759 81.194V79.742ZM119.051 79.06H129.809V80.93H119.051V79.06Z" fill="black"/>
<path d="M110.162 93.448L110.316 93.69C110.111 94.4673 109.832 95.318 109.48 96.242C109.143 97.166 108.791 98.0313 108.424 98.838H106.07C106.276 97.9727 106.474 97.0487 106.664 96.066C106.87 95.0833 107.031 94.2107 107.148 93.448H110.162Z" fill="black"/>
<path d="M91.6174 78.972C92.6294 78.972 93.5314 79.2727 94.3234 79.874C95.13 80.4607 95.7534 81.304 96.1934 82.404C96.648 83.4893 96.8754 84.7727 96.8754 86.254C96.8754 87.75 96.648 89.048 96.1934 90.148C95.7534 91.2333 95.13 92.0767 94.3234 92.678C93.5314 93.2647 92.6294 93.558 91.6174 93.558C90.6054 93.558 89.7034 93.2647 88.9114 92.678C88.1194 92.0767 87.496 91.2333 87.0414 90.148C86.5867 89.048 86.3594 87.75 86.3594 86.254C86.3594 84.7727 86.5867 83.4893 87.0414 82.404C87.496 81.304 88.1194 80.4607 88.9114 79.874C89.7034 79.2727 90.6054 78.972 91.6174 78.972ZM91.6174 81.634C91.1334 81.634 90.7007 81.81 90.3194 82.162C89.9527 82.514 89.6667 83.0347 89.4614 83.724C89.256 84.3987 89.1534 85.242 89.1534 86.254C89.1534 87.2513 89.256 88.102 89.4614 88.806C89.6667 89.4953 89.9527 90.016 90.3194 90.368C90.7007 90.72 91.1334 90.896 91.6174 90.896C92.1307 90.896 92.5707 90.72 92.9374 90.368C93.304 90.016 93.59 89.4953 93.7954 88.806C94.0007 88.102 94.1034 87.2513 94.1034 86.254C94.1034 85.242 94.0007 84.3987 93.7954 83.724C93.59 83.0347 93.304 82.514 92.9374 82.162C92.5707 81.81 92.1307 81.634 91.6174 81.634ZM100.219 77.542H103.145V97.98H100.219V77.542ZM96.0174 84.912H101.451V87.244H96.0174V84.912Z" fill="black"/>
<path d="M67.8869 79.258H80.7349V81.612H67.8869V79.258ZM65.7969 93.25H84.2329V95.604H65.7969V93.25ZM79.5469 79.258H82.4509V81.062C82.4509 81.8833 82.4362 82.7633 82.4069 83.702C82.3922 84.6407 82.3189 85.6893 82.1869 86.848C82.0549 88.0067 81.8349 89.334 81.5269 90.83L78.6229 90.522C79.0922 88.454 79.3635 86.6573 79.4369 85.132C79.5102 83.592 79.5469 82.2353 79.5469 81.062V79.258ZM80.0749 84.164V86.386L67.6449 87.046L67.2709 84.56L80.0749 84.164ZM72.3309 88.366H75.2789V94.108H72.3309V88.366Z" fill="black"/>
<path d="M53.8558 77.564H56.7818V91.358H53.8558V77.564ZM41.0078 86.474H42.7678C44.1905 86.474 45.4371 86.4593 46.5078 86.43C47.5931 86.386 48.5905 86.32 49.4998 86.232C50.4091 86.144 51.3185 86.012 52.2278 85.836L52.4918 88.146C51.5678 88.322 50.6291 88.4613 49.6758 88.564C48.7371 88.6667 47.7105 88.7327 46.5958 88.762C45.4811 88.7913 44.2051 88.806 42.7678 88.806H41.0078V86.474ZM41.0078 79.148H50.5558V81.502H43.9118V87.97H41.0078V79.148ZM48.3778 89.95H50.8418V90.368C50.8418 91.292 50.6658 92.172 50.3138 93.008C49.9765 93.8293 49.4778 94.57 48.8178 95.23C48.1725 95.8753 47.3658 96.4327 46.3978 96.902C45.4445 97.3713 44.3445 97.7013 43.0978 97.892L41.9758 95.626C43.0611 95.4647 43.9998 95.2153 44.7918 94.878C45.5985 94.526 46.2658 94.108 46.7938 93.624C47.3218 93.14 47.7178 92.6193 47.9818 92.062C48.2458 91.5047 48.3778 90.94 48.3778 90.368V89.95ZM48.9058 89.95H51.3918V90.368C51.3918 90.94 51.5238 91.5047 51.7878 92.062C52.0518 92.6193 52.4405 93.14 52.9538 93.624C53.4671 94.0933 54.1271 94.504 54.9338 94.856C55.7405 95.208 56.6865 95.4647 57.7718 95.626L56.6498 97.892C55.4031 97.6867 54.2958 97.3493 53.3278 96.88C52.3745 96.4253 51.5678 95.868 50.9078 95.208C50.2625 94.548 49.7638 93.8073 49.4118 92.986C49.0745 92.1647 48.9058 91.292 48.9058 90.368V89.95Z" fill="black"/>
<path d="M33.6201 77.586H36.5461V92.216H33.6201V77.586ZM22.9721 95.252H37.0741V97.606H22.9721V95.252ZM22.9721 90.764H25.8981V96.22H22.9721V90.764ZM25.4581 78.884C26.4994 78.884 27.4381 79.104 28.2741 79.544C29.1101 79.984 29.7701 80.5927 30.2541 81.37C30.7527 82.1473 31.0021 83.042 31.0021 84.054C31.0021 85.0367 30.7527 85.924 30.2541 86.716C29.7701 87.4933 29.1101 88.1093 28.2741 88.564C27.4381 89.004 26.4994 89.224 25.4581 89.224C24.4167 89.224 23.4781 89.004 22.6421 88.564C21.8061 88.1093 21.1387 87.4933 20.6401 86.716C20.1561 85.924 19.9141 85.0367 19.9141 84.054C19.9141 83.042 20.1561 82.1473 20.6401 81.37C21.1387 80.5927 21.8061 79.984 22.6421 79.544C23.4781 79.104 24.4167 78.884 25.4581 78.884ZM25.4581 81.392C24.9594 81.392 24.5047 81.502 24.0941 81.722C23.6834 81.9273 23.3607 82.228 23.1261 82.624C22.8914 83.0053 22.7741 83.482 22.7741 84.054C22.7741 84.5967 22.8914 85.066 23.1261 85.462C23.3607 85.8433 23.6834 86.144 24.0941 86.364C24.5047 86.5693 24.9594 86.672 25.4581 86.672C25.9567 86.672 26.4114 86.5693 26.8221 86.364C27.2327 86.144 27.5554 85.8433 27.7901 85.462C28.0247 85.066 28.1421 84.5967 28.1421 84.054C28.1421 83.482 28.0247 83.0053 27.7901 82.624C27.5554 82.228 27.2327 81.9273 26.8221 81.722C26.4114 81.502 25.9567 81.392 25.4581 81.392Z" fill="black"/>
<path d="M0 79.478H9.746V92.986H0V79.478ZM6.864 81.788H2.882V90.698H6.864V81.788ZM12.386 77.586H15.334V97.958H12.386V77.586ZM14.696 85.264H18.282V87.662H14.696V85.264Z" fill="black"/>
<path d="M104.503 15.81C97.6328 15.81 93.5328 19.86 91.7028 22.23V16.06H80.8828V54.17H91.7028V38.21C91.7028 35.5 92.4328 32.8 94.0128 30.59C95.5928 28.38 97.9928 26.53 101.723 26.53C110.663 26.53 109.713 38.29 109.713 38.29V54.17H120.533V38.29C120.533 22.47 114.203 15.81 104.503 15.81Z" fill="black"/>
<path d="M266.774 44.58C254.374 50.25 255.204 37.93 255.204 37.93V26.14H267.814V16.05H255.204V1.94H244.384V16.05H237.234V26.14H244.384V37.93C244.384 48.51 247.304 55.67 257.074 56.15C263.204 56.45 270.564 53.2 270.564 53.2L266.774 44.58Z" fill="black"/>
<path d="M72.3356 16.06H61.5156V54.17H72.3356V16.06Z" fill="black"/>
<path d="M67.5938 0H66.2537C63.2659 0 60.8438 2.42214 60.8438 5.41V6.75C60.8438 9.73786 63.2659 12.16 66.2537 12.16H67.5938C70.5816 12.16 73.0037 9.73786 73.0037 6.75V5.41C73.0037 2.42214 70.5816 0 67.5938 0Z" fill="black"/>
<path d="M42.9344 1.94V1.96C42.8244 2.32 36.7344 22.2 27.8444 30.15C27.4344 30.52 26.8044 30.52 26.3944 30.15C17.4244 22.12 11.3144 1.94 11.3144 1.94H0.484375V54.17H11.3044V27.05C14.2444 33.05 20.1244 42.9 27.1244 42.9C34.1244 42.9 39.9944 33.07 42.9344 27.07V54.17H53.7544V1.94H42.9344Z" fill="black"/>
<path d="M199.762 1.95V14.14C193.892 14.92 170.352 19.27 170.352 39.11C170.352 61.77 199.762 56.18 199.762 56.18L210.582 54.18V1.95H199.762ZM181.612 39.04C181.612 27.33 196.072 24.95 199.752 24.53V46.15C192.502 47.48 181.612 47.99 181.612 39.04Z" fill="black"/>
<path d="M230.008 16.06H219.188V54.17H230.008V16.06Z" fill="black"/>
<path d="M225.266 0H223.926C220.938 0 218.516 2.42214 218.516 5.41V6.75C218.516 9.73786 220.938 12.16 223.926 12.16H225.266C228.253 12.16 230.676 9.73786 230.676 6.75V5.41C230.676 2.42214 228.253 0 225.266 0Z" fill="black"/>
<path d="M154.441 1.95V14.14C148.571 14.92 125.031 19.27 125.031 39.11C125.031 61.77 154.441 56.18 154.441 56.18L165.261 54.18V1.95H154.441ZM136.301 39.04C136.301 27.33 150.761 24.95 154.441 24.53V46.15C147.191 47.48 136.301 47.99 136.301 39.04Z" fill="black"/>
<path d="M326.062 29.01H324.872C317.302 29.01 311.172 35.14 311.172 42.71V43.6C311.172 51.17 317.302 57.3 324.872 57.3H326.062C333.632 57.3 339.762 51.17 339.762 43.6V42.71C339.762 35.14 333.632 29.01 326.062 29.01ZM333.252 44.45C333.252 48.75 329.772 51.53 325.472 51.53C321.172 51.53 317.692 48.75 317.692 44.45V41.86C317.692 37.56 321.172 34.78 325.472 34.78C329.772 34.78 333.252 37.56 333.252 41.86V44.45Z" fill="black"/>
<path d="M295.784 51.53C291.484 51.53 288.004 48.75 288.004 44.45V41.86C288.004 37.56 291.484 34.78 295.784 34.78C298.454 34.78 300.804 35.85 302.204 37.69L308.454 36.25C306.144 31.94 301.604 29 296.374 29H295.184C287.614 29 281.484 35.13 281.484 42.7V43.59C281.484 51.16 287.614 57.29 295.184 57.29H296.374C301.224 57.29 305.474 54.77 307.904 50.97L302.904 47.45C301.704 49.99 298.964 51.52 295.784 51.52V51.53Z" fill="black"/>
<path d="M365.361 43.61C365.361 51.18 371.491 57.31 379.061 57.31H380.251C385.101 57.31 389.351 54.79 391.781 50.99L386.781 47.47C385.581 50.01 382.841 51.54 379.661 51.54C375.611 51.54 372.281 49.24 371.911 44.67H391.531C391.531 44.67 393.061 37.56 387.971 32.53C385.721 30.31 382.661 29.02 379.341 29.02H378.221C364.301 29.02 365.371 43.61 365.371 43.61H365.361ZM371.761 39.61C372.691 36.62 375.481 34.78 378.771 34.78C382.061 34.78 384.851 36.61 385.781 39.61H371.751H371.761Z" fill="black"/>
<path d="M343.528 56.46V30.01H350.048V34.25C350.048 34.33 350.098 34.41 350.178 34.44C350.198 34.44 350.218 34.45 350.248 34.45C350.308 34.45 350.368 34.42 350.398 34.38C351.298 33.28 354.638 29.71 360.068 29.71C361.768 29.71 363.538 30.06 365.328 30.75L361.588 37.37C361.028 37.06 359.218 36.15 357.088 36.15C354.958 36.15 353.288 36.99 351.918 38.64C350.698 40.11 350.028 42.06 350.028 44.14V56.47H343.508L343.528 56.46Z" fill="black"/>
</svg>
