<svg width="392" height="58" viewBox="0 0 392 58" fill="none" xmlns="http://www.w3.org/2000/svg">
<path d="M104.018 15.81C97.1484 15.81 93.0484 19.86 91.2184 22.23V16.06H80.3984V54.17H91.2184V38.21C91.2184 35.5 91.9484 32.8 93.5284 30.59C95.1084 28.38 97.5084 26.53 101.238 26.53C110.178 26.53 109.228 38.29 109.228 38.29V54.17H120.048V38.29C120.048 22.47 113.718 15.81 104.018 15.81Z" fill="#485763"/>
<path d="M266.29 44.58C253.89 50.25 254.72 37.93 254.72 37.93V26.14H267.33V16.05H254.72V1.94H243.9V16.05H236.75V26.14H243.9V37.93C243.9 48.51 246.82 55.67 256.59 56.15C262.72 56.45 270.08 53.2 270.08 53.2L266.29 44.58Z" fill="#485763"/>
<path d="M71.8512 16.06H61.0312V54.17H71.8512V16.06Z" fill="#485763"/>
<path d="M67.1094 0H65.7694C62.7815 0 60.3594 2.42214 60.3594 5.41V6.75C60.3594 9.73786 62.7815 12.16 65.7694 12.16H67.1094C70.0972 12.16 72.5194 9.73786 72.5194 6.75V5.41C72.5194 2.42214 70.0972 0 67.1094 0Z" fill="#485763"/>
<path d="M42.45 1.94V1.96C42.34 2.32 36.25 22.2 27.36 30.15C26.95 30.52 26.32 30.52 25.91 30.15C16.94 22.12 10.83 1.94 10.83 1.94H0V54.17H10.82V27.05C13.76 33.05 19.64 42.9 26.64 42.9C33.64 42.9 39.51 33.07 42.45 27.07V54.17H53.27V1.94H42.45Z" fill="#485763"/>
<path d="M199.277 1.95001V14.14C193.407 14.92 169.867 19.27 169.867 39.11C169.867 61.77 199.277 56.18 199.277 56.18L210.097 54.18V1.95001H199.277ZM181.127 39.04C181.127 27.33 195.587 24.95 199.267 24.53V46.15C192.017 47.48 181.127 47.99 181.127 39.04Z" fill="#485763"/>
<path d="M229.523 16.06H218.703V54.17H229.523V16.06Z" fill="#485763"/>
<path d="M224.781 0H223.441C220.453 0 218.031 2.42214 218.031 5.41V6.75C218.031 9.73786 220.453 12.16 223.441 12.16H224.781C227.769 12.16 230.191 9.73786 230.191 6.75V5.41C230.191 2.42214 227.769 0 224.781 0Z" fill="#485763"/>
<path d="M153.957 1.95001V14.14C148.087 14.92 124.547 19.27 124.547 39.11C124.547 61.77 153.957 56.18 153.957 56.18L164.777 54.18V1.95001H153.957ZM135.817 39.04C135.817 27.33 150.277 24.95 153.957 24.53V46.15C146.707 47.48 135.817 47.99 135.817 39.04Z" fill="#485763"/>
<path d="M325.578 29.01H324.388C316.818 29.01 310.688 35.14 310.688 42.71V43.6C310.688 51.17 316.818 57.3 324.388 57.3H325.578C333.148 57.3 339.277 51.17 339.277 43.6V42.71C339.277 35.14 333.148 29.01 325.578 29.01ZM332.768 44.45C332.768 48.75 329.288 51.53 324.988 51.53C320.688 51.53 317.208 48.75 317.208 44.45V41.86C317.208 37.56 320.688 34.78 324.988 34.78C329.288 34.78 332.768 37.56 332.768 41.86V44.45Z" fill="#485763"/>
<path d="M295.3 51.53C291 51.53 287.52 48.75 287.52 44.45V41.86C287.52 37.56 291 34.78 295.3 34.78C297.97 34.78 300.32 35.85 301.72 37.69L307.97 36.25C305.66 31.94 301.12 29 295.89 29H294.7C287.13 29 281 35.13 281 42.7V43.59C281 51.16 287.13 57.29 294.7 57.29H295.89C300.74 57.29 304.99 54.77 307.42 50.97L302.42 47.45C301.22 49.99 298.48 51.52 295.3 51.52V51.53Z" fill="#485763"/>
<path d="M364.876 43.61C364.876 51.18 371.006 57.31 378.576 57.31H379.766C384.616 57.31 388.866 54.79 391.296 50.99L386.296 47.47C385.096 50.01 382.356 51.54 379.176 51.54C375.126 51.54 371.796 49.24 371.426 44.67H391.046C391.046 44.67 392.576 37.56 387.486 32.53C385.236 30.31 382.176 29.02 378.856 29.02H377.736C363.816 29.02 364.886 43.61 364.886 43.61H364.876ZM371.276 39.61C372.206 36.62 374.996 34.78 378.286 34.78C381.576 34.78 384.366 36.61 385.296 39.61H371.266H371.276Z" fill="#485763"/>
<path d="M343.043 56.46V30.01H349.563V34.25C349.563 34.33 349.613 34.41 349.693 34.44C349.713 34.44 349.733 34.45 349.763 34.45C349.823 34.45 349.883 34.42 349.913 34.38C350.813 33.28 354.153 29.71 359.583 29.71C361.283 29.71 363.053 30.06 364.843 30.75L361.103 37.37C360.543 37.06 358.733 36.15 356.603 36.15C354.473 36.15 352.803 36.99 351.433 38.64C350.213 40.11 349.543 42.06 349.543 44.14V56.47H343.023L343.043 56.46Z" fill="#485763"/>
</svg>
