<svg width="419" height="59" viewBox="0 0 419 59" fill="none" xmlns="http://www.w3.org/2000/svg">
<path d="M104.018 15.8101C97.1484 15.8101 93.0484 19.8601 91.2184 22.2301V16.0601H80.3984V54.1701H91.2184V38.2101C91.2184 35.5001 91.9484 32.8001 93.5284 30.5901C95.1084 28.3801 97.5084 26.5301 101.238 26.5301C110.178 26.5301 109.228 38.2901 109.228 38.2901V54.1701H120.048V38.2901C120.048 22.4701 113.718 15.8101 104.018 15.8101Z" fill="black"/>
<path d="M266.29 44.5799C253.89 50.2499 254.72 37.9299 254.72 37.9299V26.1399H267.33V16.0499H254.72V1.93994H243.9V16.0499H236.75V26.1399H243.9V37.9299C243.9 48.5099 246.82 55.6699 256.59 56.1499C262.72 56.4499 270.08 53.1999 270.08 53.1999L266.29 44.5799Z" fill="black"/>
<path d="M71.8512 16.0601H61.0312V54.1701H71.8512V16.0601Z" fill="black"/>
<path d="M67.1094 0H65.7694C62.7815 0 60.3594 2.42214 60.3594 5.41V6.75C60.3594 9.73786 62.7815 12.16 65.7694 12.16H67.1094C70.0972 12.16 72.5194 9.73786 72.5194 6.75V5.41C72.5194 2.42214 70.0972 0 67.1094 0Z" fill="black"/>
<path d="M42.45 1.93994V1.95994C42.34 2.31994 36.25 22.1999 27.36 30.1499C26.95 30.5199 26.32 30.5199 25.91 30.1499C16.94 22.1199 10.83 1.93994 10.83 1.93994H0V54.1699H10.82V27.0499C13.76 33.0499 19.64 42.8999 26.64 42.8999C33.64 42.8999 39.51 33.0699 42.45 27.0699V54.1699H53.27V1.93994H42.45Z" fill="black"/>
<path d="M199.277 1.94995V14.14C193.407 14.92 169.867 19.27 169.867 39.11C169.867 61.77 199.277 56.18 199.277 56.18L210.097 54.18V1.94995H199.277ZM181.127 39.04C181.127 27.33 195.587 24.95 199.267 24.53V46.15C192.017 47.48 181.127 47.99 181.127 39.04Z" fill="black"/>
<path d="M229.523 16.0601H218.703V54.1701H229.523V16.0601Z" fill="black"/>
<path d="M224.781 0H223.441C220.453 0 218.031 2.42214 218.031 5.41V6.75C218.031 9.73786 220.453 12.16 223.441 12.16H224.781C227.769 12.16 230.191 9.73786 230.191 6.75V5.41C230.191 2.42214 227.769 0 224.781 0Z" fill="black"/>
<path d="M153.957 1.94995V14.14C148.087 14.92 124.547 19.27 124.547 39.11C124.547 61.77 153.957 56.18 153.957 56.18L164.777 54.18V1.94995H153.957ZM135.817 39.04C135.817 27.33 150.277 24.95 153.957 24.53V46.15C146.707 47.48 135.817 47.99 135.817 39.04Z" fill="black"/>
<path d="M394.798 10.02H305.048C291.771 10.02 281.008 20.7831 281.008 34.06V34.07C281.008 47.3469 291.771 58.11 305.048 58.11H394.798C408.075 58.11 418.838 47.3469 418.838 34.07V34.06C418.838 20.7831 408.075 10.02 394.798 10.02Z" fill="black"/>
<path d="M339.343 20.49H338.153C330.583 20.49 324.453 26.62 324.453 34.19V35.08C324.453 42.65 330.583 48.78 338.153 48.78H339.343C346.913 48.78 353.043 42.65 353.043 35.08V34.19C353.043 26.62 346.913 20.49 339.343 20.49ZM346.533 35.93C346.533 40.23 343.053 43.01 338.753 43.01C334.453 43.01 330.973 40.23 330.973 35.93V33.34C330.973 29.04 334.453 26.26 338.753 26.26C343.053 26.26 346.533 29.04 346.533 33.34V35.93Z" fill="white"/>
<path d="M309.066 43.01C304.766 43.01 301.286 40.23 301.286 35.93V33.34C301.286 29.04 304.766 26.26 309.066 26.26C311.736 26.26 314.086 27.33 315.486 29.17L321.736 27.73C319.426 23.42 314.886 20.48 309.656 20.48H308.466C300.896 20.48 294.766 26.61 294.766 34.18V35.07C294.766 42.64 300.896 48.77 308.466 48.77H309.656C314.506 48.77 318.756 46.25 321.186 42.45L316.186 38.93C314.986 41.47 312.246 43 309.066 43V43.01Z" fill="white"/>
<path d="M378.642 35.09C378.642 42.66 384.772 48.79 392.342 48.79H393.532C398.382 48.79 402.632 46.27 405.062 42.47L400.062 38.95C398.862 41.49 396.122 43.02 392.942 43.02C388.892 43.02 385.562 40.72 385.192 36.15H404.812C404.812 36.15 406.342 29.04 401.252 24.01C399.002 21.79 395.942 20.5 392.622 20.5H391.502C377.582 20.5 378.652 35.09 378.652 35.09H378.642ZM385.042 31.09C385.972 28.1 388.762 26.26 392.052 26.26C395.342 26.26 398.132 28.09 399.062 31.09H385.032H385.042Z" fill="white"/>
<path d="M356.809 47.9399V21.4899H363.329V25.7299C363.329 25.8099 363.379 25.8899 363.459 25.9199C363.479 25.9199 363.499 25.9299 363.529 25.9299C363.589 25.9299 363.649 25.8999 363.679 25.8599C364.579 24.7599 367.919 21.1899 373.349 21.1899C375.049 21.1899 376.819 21.5399 378.609 22.2299L374.869 28.8499C374.309 28.5399 372.499 27.6299 370.369 27.6299C368.239 27.6299 366.569 28.4699 365.199 30.1199C363.979 31.5899 363.309 33.5399 363.309 35.6199V47.9499H356.789L356.809 47.9399Z" fill="white"/>
</svg>
