<svg width="507" height="80" viewBox="0 0 507 80" fill="none" xmlns="http://www.w3.org/2000/svg">
<path d="M214.296 27.6929C207.314 27.6929 203.147 31.8093 201.287 34.2182V27.947H190.289V66.6821H201.287V50.4603C201.287 47.7059 202.029 44.9616 203.634 42.7153C205.24 40.4691 207.68 38.5887 211.471 38.5887C220.558 38.5887 219.592 50.5416 219.592 50.5416V66.6821H230.589V50.5416C230.589 34.4621 224.156 27.6929 214.296 27.6929Z" fill="#485763"/>
<path d="M379.228 56.9348C366.624 62.6978 367.468 50.1757 367.468 50.1757V38.1924H380.285V27.9369H367.468V13.5954H356.47V27.9369H349.203V38.1924H356.47V50.1757C356.47 60.9293 359.438 68.2067 369.369 68.6946C375.599 68.9995 383.08 65.6962 383.08 65.6962L379.228 56.9348Z" fill="#485763"/>
<path d="M181.607 27.947H170.609V66.6821H181.607V27.947Z" fill="#485763"/>
<path d="M176.783 11.6236H175.421C172.384 11.6236 169.922 14.0855 169.922 17.1223V18.4843C169.922 21.5212 172.384 23.983 175.421 23.983H176.783C179.819 23.983 182.281 21.5212 182.281 18.4843V17.1223C182.281 14.0855 179.819 11.6236 176.783 11.6236Z" fill="#485763"/>
<path d="M151.717 13.5954V13.6158C151.605 13.9817 145.415 34.1877 136.379 42.2681C135.962 42.6442 135.322 42.6442 134.905 42.2681C125.788 34.1064 119.578 13.5954 119.578 13.5954H108.57V66.6821H119.568V39.1173C122.556 45.2157 128.532 55.2273 135.647 55.2273C142.762 55.2273 148.728 45.236 151.717 39.1376V66.6821H162.714V13.5954H151.717Z" fill="#485763"/>
<path d="M311.119 13.6056V25.9956C305.153 26.7884 281.227 31.2097 281.227 51.3751C281.227 74.4068 311.119 68.7251 311.119 68.7251L322.116 66.6923V13.6056H311.119ZM292.671 51.304C292.671 39.4019 307.368 36.9829 311.109 36.556V58.5306C303.74 59.8824 292.671 60.4008 292.671 51.304Z" fill="#485763"/>
<path d="M341.865 27.947H330.867V66.6821H341.865V27.947Z" fill="#485763"/>
<path d="M337.04 11.6236H335.678C332.642 11.6236 330.18 14.0855 330.18 17.1223V18.4843C330.18 21.5212 332.642 23.983 335.678 23.983H337.04C340.077 23.983 342.539 21.5212 342.539 18.4843V17.1223C342.539 14.0855 340.077 11.6236 337.04 11.6236Z" fill="#485763"/>
<path d="M265.056 13.6056V25.9956C259.09 26.7884 235.164 31.2097 235.164 51.3751C235.164 74.4068 265.056 68.7251 265.056 68.7251L276.054 66.6923V13.6056H265.056ZM246.619 51.304C246.619 39.4019 261.316 36.9829 265.056 36.556V58.5306C257.688 59.8824 246.619 60.4008 246.619 51.304Z" fill="#485763"/>
<path d="M439.494 41.1094H438.284C430.59 41.1094 424.359 47.34 424.359 55.0341V55.9387C424.359 63.6329 430.59 69.8635 438.284 69.8635H439.494C447.188 69.8635 453.418 63.6329 453.418 55.9387V55.0341C453.418 47.34 447.188 41.1094 439.494 41.1094ZM446.802 56.8027C446.802 61.1732 443.264 63.9988 438.894 63.9988C434.523 63.9988 430.986 61.1732 430.986 56.8027V54.1702C430.986 49.7997 434.523 46.9741 438.894 46.9741C443.264 46.9741 446.802 49.7997 446.802 54.1702V56.8027Z" fill="#485763"/>
<path d="M408.714 63.9988C404.344 63.9988 400.807 61.1732 400.807 56.8027V54.1702C400.807 49.7997 404.344 46.9741 408.714 46.9741C411.428 46.9741 413.817 48.0616 415.24 49.9318L421.592 48.4682C419.244 44.0875 414.63 41.0993 409.314 41.0993H408.104C400.41 41.0993 394.18 47.3298 394.18 55.024V55.9286C394.18 63.6227 400.41 69.8533 408.104 69.8533H409.314C414.243 69.8533 418.563 67.292 421.033 63.4296L415.951 59.8519C414.731 62.4336 411.946 63.9887 408.714 63.9887V63.9988Z" fill="#485763"/>
<path d="M479.431 55.9489C479.431 63.6431 485.662 69.8736 493.356 69.8736H494.565C499.495 69.8736 503.815 67.3123 506.284 63.45L501.202 59.8722C499.983 62.4539 497.198 64.009 493.966 64.009C489.849 64.009 486.465 61.6713 486.088 57.0263H506.03C506.03 57.0263 507.585 49.7997 502.412 44.6872C500.125 42.4308 497.015 41.1196 493.64 41.1196H492.502C478.354 41.1196 479.441 55.9489 479.441 55.9489H479.431ZM485.936 51.8833C486.881 48.8443 489.717 46.9741 493.061 46.9741C496.405 46.9741 499.241 48.8341 500.186 51.8833H485.926H485.936Z" fill="#485763"/>
<path d="M457.247 69.0096V42.1258H463.874V46.4354C463.874 46.5167 463.925 46.598 464.006 46.6285C464.026 46.6285 464.047 46.6386 464.077 46.6386C464.138 46.6386 464.199 46.6081 464.23 46.5675C465.144 45.4494 468.539 41.8209 474.058 41.8209C475.786 41.8209 477.585 42.1766 479.404 42.8779L475.603 49.6065C475.034 49.2914 473.194 48.3665 471.029 48.3665C468.864 48.3665 467.167 49.2203 465.775 50.8974C464.534 52.3915 463.853 54.3735 463.853 56.4876V69.0198H457.227L457.247 69.0096Z" fill="#485763"/>
<rect width="80" height="80" rx="20" fill="#485763"/>
<path d="M52.2158 20.5714V20.5868C52.1308 20.8625 47.4272 36.0874 40.5611 42.1759C40.2444 42.4592 39.7578 42.4592 39.4412 42.1759C32.5132 36.0262 27.7942 20.5714 27.7942 20.5714H19.4297V60.5714H27.7865V39.8018C30.0572 44.3968 34.5986 51.9404 40.005 51.9404C45.4114 51.9404 49.9451 44.4121 52.2158 39.8171V60.5714H60.5725V20.5714H52.2158Z" fill="white"/>
</svg>
