<svg width="421" height="105" viewBox="0 0 421 105" fill="none" xmlns="http://www.w3.org/2000/svg">
<path d="M106.018 15.8101C99.1484 15.8101 95.0484 19.8601 93.2184 22.2301V16.0601H82.3984V54.1701H93.2184V38.2101C93.2184 35.5001 93.9484 32.8001 95.5284 30.5901C97.1084 28.3801 99.5084 26.5301 103.238 26.5301C112.178 26.5301 111.228 38.2901 111.228 38.2901V54.1701H122.048V38.2901C122.048 22.4701 115.718 15.8101 106.018 15.8101Z" fill="black"/>
<path d="M268.29 44.5799C255.89 50.2499 256.72 37.9299 256.72 37.9299V26.1399H269.33V16.0499H256.72V1.93994H245.9V16.0499H238.75V26.1399H245.9V37.9299C245.9 48.5099 248.82 55.6699 258.59 56.1499C264.72 56.4499 272.08 53.1999 272.08 53.1999L268.29 44.5799Z" fill="black"/>
<path d="M73.8512 16.0601H63.0312V54.1701H73.8512V16.0601Z" fill="black"/>
<path d="M69.1094 0H67.7694C64.7815 0 62.3594 2.42214 62.3594 5.41V6.75C62.3594 9.73786 64.7815 12.16 67.7694 12.16H69.1094C72.0972 12.16 74.5194 9.73786 74.5194 6.75V5.41C74.5194 2.42214 72.0972 0 69.1094 0Z" fill="black"/>
<path d="M44.45 1.93994V1.95994C44.34 2.31994 38.25 22.1999 29.36 30.1499C28.95 30.5199 28.32 30.5199 27.91 30.1499C18.94 22.1199 12.83 1.93994 12.83 1.93994H2V54.1699H12.82V27.0499C15.76 33.0499 21.64 42.8999 28.64 42.8999C35.64 42.8999 41.51 33.0699 44.45 27.0699V54.1699H55.27V1.93994H44.45Z" fill="black"/>
<path d="M201.277 1.94995V14.14C195.407 14.92 171.867 19.27 171.867 39.11C171.867 61.77 201.277 56.18 201.277 56.18L212.097 54.18V1.94995H201.277ZM183.127 39.04C183.127 27.33 197.587 24.95 201.267 24.53V46.15C194.017 47.48 183.127 47.99 183.127 39.04Z" fill="black"/>
<path d="M231.523 16.0601H220.703V54.1701H231.523V16.0601Z" fill="black"/>
<path d="M226.781 0H225.441C222.453 0 220.031 2.42214 220.031 5.41V6.75C220.031 9.73786 222.453 12.16 225.441 12.16H226.781C229.769 12.16 232.191 9.73786 232.191 6.75V5.41C232.191 2.42214 229.769 0 226.781 0Z" fill="black"/>
<path d="M155.957 1.94995V14.14C150.087 14.92 126.547 19.27 126.547 39.11C126.547 61.77 155.957 56.18 155.957 56.18L166.777 54.18V1.94995H155.957ZM137.817 39.04C137.817 27.33 152.277 24.95 155.957 24.53V46.15C148.707 47.48 137.817 47.99 137.817 39.04Z" fill="black"/>
<path d="M396.798 10.02H307.048C293.771 10.02 283.008 20.7831 283.008 34.06V34.07C283.008 47.3469 293.771 58.11 307.048 58.11H396.798C410.075 58.11 420.838 47.3469 420.838 34.07V34.06C420.838 20.7831 410.075 10.02 396.798 10.02Z" fill="black"/>
<path d="M341.343 20.49H340.153C332.583 20.49 326.453 26.62 326.453 34.19V35.08C326.453 42.65 332.583 48.78 340.153 48.78H341.343C348.913 48.78 355.043 42.65 355.043 35.08V34.19C355.043 26.62 348.913 20.49 341.343 20.49ZM348.533 35.93C348.533 40.23 345.053 43.01 340.753 43.01C336.453 43.01 332.973 40.23 332.973 35.93V33.34C332.973 29.04 336.453 26.26 340.753 26.26C345.053 26.26 348.533 29.04 348.533 33.34V35.93Z" fill="white"/>
<path d="M311.066 43.01C306.766 43.01 303.286 40.23 303.286 35.93V33.34C303.286 29.04 306.766 26.26 311.066 26.26C313.736 26.26 316.086 27.33 317.486 29.17L323.736 27.73C321.426 23.42 316.886 20.48 311.656 20.48H310.466C302.896 20.48 296.766 26.61 296.766 34.18V35.07C296.766 42.64 302.896 48.77 310.466 48.77H311.656C316.506 48.77 320.756 46.25 323.186 42.45L318.186 38.93C316.986 41.47 314.246 43 311.066 43V43.01Z" fill="white"/>
<path d="M380.642 35.09C380.642 42.66 386.772 48.79 394.342 48.79H395.532C400.382 48.79 404.632 46.27 407.062 42.47L402.062 38.95C400.862 41.49 398.122 43.02 394.942 43.02C390.892 43.02 387.562 40.72 387.192 36.15H406.812C406.812 36.15 408.342 29.04 403.252 24.01C401.002 21.79 397.942 20.5 394.622 20.5H393.502C379.582 20.5 380.652 35.09 380.652 35.09H380.642ZM387.042 31.09C387.972 28.1 390.762 26.26 394.052 26.26C397.342 26.26 400.132 28.09 401.062 31.09H387.032H387.042Z" fill="white"/>
<path d="M358.809 47.9399V21.4899H365.329V25.7299C365.329 25.8099 365.379 25.8899 365.459 25.9199C365.479 25.9199 365.499 25.9299 365.529 25.9299C365.589 25.9299 365.649 25.8999 365.679 25.8599C366.579 24.7599 369.919 21.1899 375.349 21.1899C377.049 21.1899 378.819 21.5399 380.609 22.2299L376.869 28.8499C376.309 28.5399 374.499 27.6299 372.369 27.6299C370.239 27.6299 368.569 28.4699 367.199 30.1199C365.979 31.5899 365.309 33.5399 365.309 35.6199V47.9499H358.789L358.809 47.9399Z" fill="white"/>
<path d="M1.587 78.727H11.776V92.849H1.587V78.727ZM8.763 81.142H4.6V90.457H8.763V81.142ZM14.536 76.749H17.618V98.047H14.536V76.749ZM16.951 84.776H20.7V87.283H16.951V84.776ZM36.7292 76.749H39.7882V92.044H36.7292V76.749ZM25.5972 95.218H40.3402V97.679H25.5972V95.218ZM25.5972 90.526H28.6562V96.23H25.5972V90.526ZM28.1962 78.106C29.2849 78.106 30.2662 78.336 31.1402 78.796C32.0142 79.256 32.7042 79.8923 33.2102 80.705C33.7315 81.5177 33.9922 82.453 33.9922 83.511C33.9922 84.5383 33.7315 85.466 33.2102 86.294C32.7042 87.1067 32.0142 87.7507 31.1402 88.226C30.2662 88.686 29.2849 88.916 28.1962 88.916C27.1075 88.916 26.1262 88.686 25.2522 88.226C24.3782 87.7507 23.6805 87.1067 23.1592 86.294C22.6532 85.466 22.4002 84.5383 22.4002 83.511C22.4002 82.453 22.6532 81.5177 23.1592 80.705C23.6805 79.8923 24.3782 79.256 25.2522 78.796C26.1262 78.336 27.1075 78.106 28.1962 78.106ZM28.1962 80.728C27.6749 80.728 27.1995 80.843 26.7702 81.073C26.3409 81.2877 26.0035 81.602 25.7582 82.016C25.5129 82.4147 25.3902 82.913 25.3902 83.511C25.3902 84.0783 25.5129 84.569 25.7582 84.983C26.0035 85.3817 26.3409 85.696 26.7702 85.926C27.1995 86.1407 27.6749 86.248 28.1962 86.248C28.7175 86.248 29.1929 86.1407 29.6222 85.926C30.0515 85.696 30.3889 85.3817 30.6342 84.983C30.8795 84.569 31.0022 84.0783 31.0022 83.511C31.0022 82.913 30.8795 82.4147 30.6342 82.016C30.3889 81.602 30.0515 81.2877 29.6222 81.073C29.1929 80.843 28.7175 80.728 28.1962 80.728ZM57.8874 76.726H60.9464V91.147H57.8874V76.726ZM44.4554 86.041H46.2954C47.7827 86.041 49.0861 86.0257 50.2054 85.995C51.3401 85.949 52.3827 85.88 53.3334 85.788C54.2841 85.696 55.2347 85.558 56.1854 85.374L56.4614 87.789C55.4954 87.973 54.5141 88.1187 53.5174 88.226C52.5361 88.3333 51.4627 88.4023 50.2974 88.433C49.1321 88.4637 47.7981 88.479 46.2954 88.479H44.4554V86.041ZM44.4554 78.382H54.4374V80.843H47.4914V87.605H44.4554V78.382ZM52.1604 89.675H54.7364V90.112C54.7364 91.078 54.5524 91.998 54.1844 92.872C53.8317 93.7307 53.3104 94.505 52.6204 95.195C51.9457 95.8697 51.1024 96.4523 50.0904 96.943C49.0937 97.4337 47.9437 97.7787 46.6404 97.978L45.4674 95.609C46.6021 95.4403 47.5834 95.1797 48.4114 94.827C49.2547 94.459 49.9524 94.022 50.5044 93.516C51.0564 93.01 51.4704 92.4657 51.7464 91.883C52.0224 91.3003 52.1604 90.71 52.1604 90.112V89.675ZM52.7124 89.675H55.3114V90.112C55.3114 90.71 55.4494 91.3003 55.7254 91.883C56.0014 92.4657 56.4077 93.01 56.9444 93.516C57.4811 94.0067 58.1711 94.436 59.0144 94.804C59.8577 95.172 60.8467 95.4403 61.9814 95.609L60.8084 97.978C59.5051 97.7633 58.3474 97.4107 57.3354 96.92C56.3387 96.4447 55.4954 95.862 54.8054 95.172C54.1307 94.482 53.6094 93.7077 53.2414 92.849C52.8887 91.9903 52.7124 91.078 52.7124 90.112V89.675ZM72.5542 78.497H85.9862V80.958H72.5542V78.497ZM70.3692 93.125H89.6432V95.586H70.3692V93.125ZM84.7442 78.497H87.7802V80.383C87.7802 81.2417 87.7649 82.1617 87.7342 83.143C87.7189 84.1243 87.6422 85.2207 87.5042 86.432C87.3662 87.6433 87.1362 89.031 86.8142 90.595L83.7782 90.273C84.2689 88.111 84.5526 86.2327 84.6292 84.638C84.7059 83.028 84.7442 81.6097 84.7442 80.383V78.497ZM85.2962 83.626V85.949L72.3012 86.639L71.9102 84.04L85.2962 83.626ZM77.2002 88.019H80.2822V94.022H77.2002V88.019ZM97.3694 78.198C98.4274 78.198 99.3704 78.5123 100.198 79.141C101.042 79.7543 101.693 80.636 102.153 81.786C102.629 82.9207 102.866 84.2623 102.866 85.811C102.866 87.375 102.629 88.732 102.153 89.882C101.693 91.0167 101.042 91.8983 100.198 92.527C99.3704 93.1403 98.4274 93.447 97.3694 93.447C96.3114 93.447 95.3684 93.1403 94.5404 92.527C93.7124 91.8983 93.0608 91.0167 92.5854 89.882C92.1101 88.732 91.8724 87.375 91.8724 85.811C91.8724 84.2623 92.1101 82.9207 92.5854 81.786C93.0608 80.636 93.7124 79.7543 94.5404 79.141C95.3684 78.5123 96.3114 78.198 97.3694 78.198ZM97.3694 80.981C96.8634 80.981 96.4111 81.165 96.0124 81.533C95.6291 81.901 95.3301 82.4453 95.1154 83.166C94.9008 83.8713 94.7934 84.753 94.7934 85.811C94.7934 86.8537 94.9008 87.743 95.1154 88.479C95.3301 89.1997 95.6291 89.744 96.0124 90.112C96.4111 90.48 96.8634 90.664 97.3694 90.664C97.9061 90.664 98.3661 90.48 98.7494 90.112C99.1328 89.744 99.4318 89.1997 99.6464 88.479C99.8611 87.743 99.9684 86.8537 99.9684 85.811C99.9684 84.753 99.8611 83.8713 99.6464 83.166C99.4318 82.4453 99.1328 81.901 98.7494 81.533C98.3661 81.165 97.9061 80.981 97.3694 80.981ZM106.362 76.703H109.421V98.07H106.362V76.703ZM101.969 84.408H107.65V86.846H101.969V84.408ZM116.757 93.332L116.918 93.585C116.703 94.3977 116.412 95.287 116.044 96.253C115.691 97.219 115.323 98.1237 114.94 98.967H112.479C112.693 98.0623 112.9 97.0963 113.1 96.069C113.314 95.0417 113.483 94.1293 113.606 93.332H116.757ZM136.65 82.154H141.066V84.132H136.65V82.154ZM140.353 76.887H142.768V89.399H140.353V76.887ZM135.776 89.951C137.248 89.951 138.505 90.112 139.548 90.434C140.606 90.7407 141.418 91.193 141.986 91.791C142.568 92.3737 142.86 93.0867 142.86 93.93C142.86 95.1873 142.223 96.161 140.951 96.851C139.693 97.541 137.968 97.886 135.776 97.886C133.583 97.886 131.85 97.541 130.578 96.851C129.305 96.161 128.669 95.1873 128.669 93.93C128.669 93.0867 128.952 92.3737 129.52 91.791C130.102 91.193 130.923 90.7407 131.981 90.434C133.054 90.112 134.319 89.951 135.776 89.951ZM135.776 91.791C134.779 91.791 133.928 91.8753 133.223 92.044C132.533 92.2127 132.004 92.4503 131.636 92.757C131.268 93.0637 131.084 93.4547 131.084 93.93C131.084 94.3747 131.268 94.758 131.636 95.08C132.004 95.402 132.533 95.6473 133.223 95.816C133.928 95.9693 134.779 96.046 135.776 96.046C136.772 96.046 137.616 95.9693 138.306 95.816C138.996 95.6473 139.525 95.402 139.893 95.08C140.276 94.758 140.468 94.3747 140.468 93.93C140.468 93.4547 140.276 93.0637 139.893 92.757C139.525 92.4503 138.996 92.2127 138.306 92.044C137.616 91.8753 136.772 91.791 135.776 91.791ZM130.486 79.003H132.464V80.521C132.464 81.8397 132.226 83.0817 131.751 84.247C131.291 85.397 130.624 86.4167 129.75 87.306C128.876 88.18 127.818 88.8393 126.576 89.284L125.357 87.375C126.169 87.0837 126.89 86.7003 127.519 86.225C128.163 85.7497 128.707 85.2053 129.152 84.592C129.596 83.9787 129.926 83.327 130.141 82.637C130.371 81.947 130.486 81.2417 130.486 80.521V79.003ZM130.969 79.003H132.924V80.521C132.924 81.3797 133.115 82.223 133.499 83.051C133.882 83.879 134.442 84.6227 135.178 85.282C135.914 85.926 136.811 86.4397 137.869 86.823L136.673 88.709C135.461 88.2797 134.426 87.6587 133.568 86.846C132.724 86.018 132.08 85.0597 131.636 83.971C131.191 82.867 130.969 81.717 130.969 80.521V79.003ZM126.047 78.29H137.294V80.245H126.047V78.29ZM161.419 76.887H163.834V92.251H161.419V76.887ZM150.126 95.517H164.432V97.472H150.126V95.517ZM150.126 90.825H152.518V96.483H150.126V90.825ZM151.736 78.037H153.737V80.13C153.737 81.51 153.507 82.8133 153.047 84.04C152.587 85.2513 151.92 86.317 151.046 87.237C150.172 88.157 149.106 88.8547 147.849 89.33L146.607 87.421C147.711 87.007 148.646 86.4243 149.413 85.673C150.18 84.9063 150.755 84.0477 151.138 83.097C151.537 82.131 151.736 81.142 151.736 80.13V78.037ZM152.219 78.037H154.174V80.13C154.174 80.8813 154.281 81.6097 154.496 82.315C154.726 83.005 155.056 83.6567 155.485 84.27C155.93 84.8833 156.466 85.4277 157.095 85.903C157.724 86.3783 158.444 86.754 159.257 87.03L158.015 88.962C156.788 88.502 155.738 87.8427 154.864 86.984C153.99 86.11 153.331 85.0903 152.886 83.925C152.441 82.7443 152.219 81.4793 152.219 80.13V78.037ZM182.669 76.887H185.084V92.343H182.669V76.887ZM178.552 83.189H183.083V85.167H178.552V83.189ZM176.137 78.474H178.667C178.667 80.3293 178.276 82.016 177.494 83.534C176.712 85.0367 175.593 86.34 174.136 87.444C172.695 88.548 170.97 89.4297 168.961 90.089L167.949 88.157C169.621 87.6203 171.07 86.9227 172.296 86.064C173.523 85.2053 174.466 84.224 175.125 83.12C175.8 82.016 176.137 80.8123 176.137 79.509V78.474ZM169.03 78.474H177.678V80.429H169.03V78.474ZM171.583 95.517H185.613V97.472H171.583V95.517ZM171.583 90.779H174.021V96.598H171.583V90.779ZM202.838 76.864H205.23V89.261H202.838V76.864ZM204.586 82.062H208.197V84.063H204.586V82.062ZM196.927 78.336H199.526C199.526 80.176 199.135 81.832 198.353 83.304C197.571 84.7607 196.452 86.018 194.995 87.076C193.554 88.1187 191.806 88.9313 189.751 89.514L188.762 87.582C190.51 87.0913 191.99 86.4473 193.201 85.65C194.413 84.8373 195.333 83.9097 195.961 82.867C196.605 81.8243 196.927 80.6973 196.927 79.486V78.336ZM189.728 78.336H198.353V80.291H189.728V78.336ZM198.56 89.537C199.956 89.537 201.167 89.7057 202.194 90.043C203.237 90.3803 204.042 90.8633 204.609 91.492C205.192 92.1053 205.483 92.8413 205.483 93.7C205.483 94.5587 205.192 95.3023 204.609 95.931C204.042 96.5443 203.237 97.0197 202.194 97.357C201.167 97.7097 199.956 97.886 198.56 97.886C197.165 97.886 195.938 97.7097 194.88 97.357C193.838 97.0197 193.033 96.5443 192.465 95.931C191.898 95.3023 191.614 94.5587 191.614 93.7C191.614 92.8413 191.898 92.1053 192.465 91.492C193.033 90.8633 193.838 90.3803 194.88 90.043C195.938 89.7057 197.165 89.537 198.56 89.537ZM198.56 91.423C197.625 91.423 196.812 91.515 196.122 91.699C195.448 91.8677 194.919 92.1283 194.535 92.481C194.167 92.8183 193.983 93.2247 193.983 93.7C193.983 94.1753 194.167 94.5893 194.535 94.942C194.919 95.2793 195.448 95.54 196.122 95.724C196.812 95.8927 197.625 95.977 198.56 95.977C199.496 95.977 200.301 95.8927 200.975 95.724C201.665 95.54 202.194 95.2793 202.562 94.942C202.93 94.5893 203.114 94.1753 203.114 93.7C203.114 93.2247 202.93 92.8183 202.562 92.481C202.194 92.1283 201.665 91.8677 200.975 91.699C200.301 91.515 199.496 91.423 198.56 91.423ZM215.964 93.332H235.008V95.333H215.964V93.332ZM217.528 78.842H233.329V80.797H217.528V78.842ZM217.62 87.651H233.283V89.583H217.62V87.651ZM220.633 80.659H223.025V87.835H220.633V80.659ZM227.832 80.659H230.224V87.835H227.832V80.659ZM237.122 93.447H256.166V95.425H237.122V93.447ZM245.402 89.169H247.817V94.252H245.402V89.169ZM239.376 78.336H253.912V85.006H241.791V88.893H239.422V83.097H251.52V80.291H239.376V78.336ZM239.422 87.927H254.395V89.859H239.422V87.927ZM260.305 78.98H273.714V80.912H260.305V78.98ZM258.281 92.987H277.279V94.965H258.281V92.987ZM272.449 78.98H274.841V81.257C274.841 82.177 274.825 83.143 274.795 84.155C274.779 85.1517 274.718 86.248 274.611 87.444C274.503 88.6247 274.319 89.9587 274.059 91.446L271.644 91.216C271.92 89.8207 272.111 88.5403 272.219 87.375C272.326 86.2097 272.387 85.121 272.403 84.109C272.433 83.097 272.449 82.1463 272.449 81.257V78.98ZM294.941 76.887H297.241V89.353H294.941V76.887ZM291.928 82.039H295.608V83.994H291.928V82.039ZM290.364 77.278H292.618V89.146H290.364V77.278ZM283.234 90.319H297.241V97.633H283.234V90.319ZM294.895 92.205H285.603V95.724H294.895V92.205ZM280.336 86.639H281.739C282.736 86.639 283.648 86.6237 284.476 86.593C285.304 86.5623 286.101 86.5087 286.868 86.432C287.65 86.3553 288.447 86.2327 289.26 86.064L289.467 87.996C288.639 88.1493 287.826 88.272 287.029 88.364C286.232 88.4407 285.404 88.4943 284.545 88.525C283.702 88.5403 282.766 88.548 281.739 88.548H280.336V86.639ZM280.313 78.221H288.248V84.178H282.659V88.019H280.336V82.361H285.902V80.107H280.313V78.221ZM306.572 87.352H325.616V89.284H306.572V87.352ZM315.013 88.594H317.474V93.24H315.013V88.594ZM308.895 95.517H323.5V97.472H308.895V95.517ZM308.895 91.262H311.333V96.023H308.895V91.262ZM316.071 77.324C317.558 77.324 318.861 77.5003 319.981 77.853C321.1 78.2057 321.966 78.704 322.58 79.348C323.208 79.992 323.523 80.751 323.523 81.625C323.523 82.499 323.208 83.258 322.58 83.902C321.966 84.546 321.1 85.0443 319.981 85.397C318.861 85.7343 317.558 85.903 316.071 85.903C314.583 85.903 313.272 85.7343 312.138 85.397C311.018 85.0443 310.152 84.546 309.539 83.902C308.925 83.258 308.619 82.499 308.619 81.625C308.619 80.751 308.925 79.992 309.539 79.348C310.152 78.704 311.018 78.2057 312.138 77.853C313.272 77.5003 314.583 77.324 316.071 77.324ZM316.071 79.279C315.089 79.279 314.231 79.371 313.495 79.555C312.759 79.739 312.191 80.0073 311.793 80.36C311.394 80.7127 311.195 81.1343 311.195 81.625C311.195 82.1157 311.394 82.5373 311.793 82.89C312.191 83.2427 312.759 83.511 313.495 83.695C314.231 83.879 315.089 83.971 316.071 83.971C317.067 83.971 317.926 83.879 318.647 83.695C319.367 83.511 319.927 83.2427 320.326 82.89C320.74 82.5373 320.947 82.1157 320.947 81.625C320.947 81.1343 320.74 80.7127 320.326 80.36C319.927 80.0073 319.367 79.739 318.647 79.555C317.926 79.371 317.067 79.279 316.071 79.279ZM337.183 79.785H343.508V81.717H337.183V79.785ZM337.183 84.546H343.508V86.501H337.183V84.546ZM333.48 78.06C334.523 78.06 335.458 78.2823 336.286 78.727C337.114 79.1563 337.766 79.7543 338.241 80.521C338.716 81.2723 338.954 82.1463 338.954 83.143C338.954 84.1243 338.716 84.9983 338.241 85.765C337.766 86.5163 337.114 87.1067 336.286 87.536C335.458 87.9653 334.523 88.18 333.48 88.18C332.453 88.18 331.525 87.9653 330.697 87.536C329.869 87.1067 329.217 86.5163 328.742 85.765C328.267 84.9983 328.029 84.1243 328.029 83.143C328.029 82.1463 328.267 81.2723 328.742 80.521C329.217 79.7543 329.869 79.1563 330.697 78.727C331.525 78.2823 332.453 78.06 333.48 78.06ZM333.48 80.107C332.882 80.107 332.345 80.2373 331.87 80.498C331.395 80.7433 331.011 81.0883 330.72 81.533C330.444 81.9777 330.306 82.5143 330.306 83.143C330.306 83.741 330.444 84.27 330.72 84.73C331.011 85.1747 331.395 85.5273 331.87 85.788C332.345 86.0333 332.882 86.156 333.48 86.156C334.093 86.156 334.638 86.0333 335.113 85.788C335.604 85.5273 335.979 85.1747 336.24 84.73C336.516 84.27 336.654 83.741 336.654 83.143C336.654 82.5143 336.516 81.9777 336.24 81.533C335.979 81.0883 335.604 80.7433 335.113 80.498C334.638 80.2373 334.093 80.107 333.48 80.107ZM342.726 76.887H345.141V89.261H342.726V76.887ZM338.149 89.721C339.606 89.721 340.863 89.882 341.921 90.204C342.979 90.526 343.792 90.9937 344.359 91.607C344.942 92.205 345.233 92.9333 345.233 93.792C345.233 94.6507 344.942 95.3867 344.359 96C343.792 96.6133 342.979 97.0733 341.921 97.38C340.863 97.702 339.606 97.863 338.149 97.863C336.692 97.863 335.435 97.702 334.377 97.38C333.319 97.0733 332.499 96.6133 331.916 96C331.333 95.3867 331.042 94.6507 331.042 93.792C331.042 92.9333 331.333 92.205 331.916 91.607C332.499 90.9937 333.319 90.526 334.377 90.204C335.435 89.882 336.692 89.721 338.149 89.721ZM338.149 91.607C337.152 91.607 336.301 91.6913 335.596 91.86C334.891 92.0287 334.354 92.274 333.986 92.596C333.618 92.918 333.434 93.3167 333.434 93.792C333.434 94.2673 333.618 94.6737 333.986 95.011C334.354 95.333 334.891 95.5783 335.596 95.747C336.301 95.9157 337.152 96 338.149 96C339.146 96 339.989 95.9157 340.679 95.747C341.384 95.5783 341.921 95.333 342.289 95.011C342.672 94.6737 342.864 94.2673 342.864 93.792C342.864 93.3167 342.672 92.918 342.289 92.596C341.921 92.274 341.384 92.0287 340.679 91.86C339.989 91.6913 339.146 91.607 338.149 91.607ZM365.397 83.764H371.124V85.719H365.397V83.764ZM360.038 78.589H361.993V82.039C361.993 83.281 361.862 84.4923 361.602 85.673C361.341 86.8383 360.958 87.9347 360.452 88.962C359.961 89.974 359.355 90.8787 358.635 91.676C357.929 92.458 357.124 93.079 356.22 93.539L354.725 91.63C355.553 91.2313 356.289 90.6947 356.933 90.02C357.592 89.3453 358.152 88.5787 358.612 87.72C359.087 86.846 359.44 85.9337 359.67 84.983C359.915 84.017 360.038 83.0357 360.038 82.039V78.589ZM360.521 78.589H362.453V82.039C362.453 83.005 362.568 83.9633 362.798 84.914C363.043 85.8493 363.396 86.731 363.856 87.559C364.316 88.3717 364.868 89.1 365.512 89.744C366.156 90.388 366.884 90.894 367.697 91.262L366.248 93.194C365.343 92.734 364.538 92.1283 363.833 91.377C363.127 90.6103 362.529 89.7363 362.039 88.755C361.548 87.7737 361.172 86.7157 360.912 85.581C360.651 84.431 360.521 83.2503 360.521 82.039V78.589ZM369.905 76.864H372.32V97.932H369.905V76.864ZM390.902 76.864H393.317V97.932H390.902V76.864ZM377.148 78.589H379.54V83.948H384.853V78.589H387.245V92.941H377.148V78.589ZM379.54 85.834V90.986H384.853V85.834H379.54ZM405.321 78.221H407.414V79.785C407.414 80.705 407.268 81.5867 406.977 82.43C406.701 83.258 406.302 84.04 405.781 84.776C405.26 85.4967 404.639 86.1483 403.918 86.731C403.213 87.3137 402.431 87.812 401.572 88.226C400.713 88.6247 399.816 88.9237 398.881 89.123L397.823 87.122C398.651 86.9687 399.441 86.731 400.192 86.409C400.943 86.0717 401.633 85.6653 402.262 85.19C402.891 84.6993 403.427 84.1703 403.872 83.603C404.332 83.0203 404.685 82.407 404.93 81.763C405.191 81.1037 405.321 80.4443 405.321 79.785V78.221ZM405.781 78.221H407.874V79.785C407.874 80.4597 407.997 81.119 408.242 81.763C408.503 82.407 408.863 83.0203 409.323 83.603C409.783 84.1857 410.327 84.7147 410.956 85.19C411.585 85.6653 412.275 86.0717 413.026 86.409C413.777 86.731 414.567 86.9687 415.395 87.122L414.337 89.123C413.402 88.9237 412.505 88.6247 411.646 88.226C410.787 87.812 409.998 87.3137 409.277 86.731C408.572 86.1483 407.958 85.4967 407.437 84.776C406.916 84.04 406.509 83.258 406.218 82.43C405.927 81.5867 405.781 80.705 405.781 79.785V78.221ZM397.179 93.194H416.223V95.195H397.179V93.194Z" fill="black"/>
</svg>
